<svg xmlns="http://www.w3.org/2000/svg" viewBox="0 0 251.13 110.95">
    <defs>
        <style>.cls-1 {
            fill: #d3005a;
        }

        .cls-2 {
            fill: #00060c;
        }</style>
    </defs>
    <g id="Layer_2" data-name="Layer 2">
        <g id="Layer_1-2" data-name="Layer 1">
            <g id="Group_662" data-name="Group 662">
                <g id="Group_651" data-name="Group 651">
                    <path id="Path_376" data-name="Path 376" class="cls-1"
                          d="M53.46,29.42c0,18.65-11.19,31.08-27.77,31.08S0,50.14,0,30.67C0,11.6,10.53,0,27.35,0,43.93,0,53.46,10.93,53.46,29.42Zm-39.37.83c0,13.68,3.73,19.89,12,19.89s13.26-5.38,13.26-20.3c0-13.68-4.14-19.48-12.43-19.48S14.09,15.49,14.09,30.25Z"/>
                    <path id="Path_377" data-name="Path 377" class="cls-1"
                          d="M56.77,59.42v-7L63,49.89v-39L56.77,8.45v-7L75.84,1h6.3c13.59,0,21.55,5.63,21.55,16.91,0,7.79-3.73,12.84-9.37,15.66A23.77,23.77,0,0,1,97.8,39l5.55,11.35L109,52.37v7.05H93.66l-7-15.33c-2.81-6.3-3.56-7.63-8-7.63h-2.9V49.89l6,2.48v7.05ZM80.56,27.76c6.55,0,10.36-3.15,10.36-8.7,0-4.72-3.15-8.12-8.29-8.12h-6.8V27.76Z"/>
                </g>
                <g id="Group_652" data-name="Group 652">
                    <path id="Path_378" data-name="Path 378" class="cls-1"
                          d="M113.13,59.42v-7l6.22-2.49v-39l-6.22-2.48v-7L138.41,1V8.45l-6.22,2.48v39l6.22,2.49v7Z"/>
                </g>
                <g id="Group_653" data-name="Group 653">
                    <path id="Path_379" data-name="Path 379" class="cls-2"
                          d="M151.84,52.79V8l-7-1.67V1.82l15.58-.42h9.53c10.36,0,17.82,4.56,17.82,14.5,0,7.46-3.81,11.69-10.78,13.43,8.7,2,12.85,6.88,12.85,13.51,0,11.6-7.46,16.58-21.13,16.58H144.8v-5Zm14.75-26.52c7.46,0,12.43-2.9,12.43-9.53,0-5.8-4.14-8.7-9.53-8.7h-9.12V26.27Zm2.49,26.52c7.87,0,12-3.31,12-9.53,0-8.29-5.38-10.77-14.5-10.77h-6.21v20.3Z"/>
                </g>
                <g id="Group_654" data-name="Group 654">
                    <path id="Path_380" data-name="Path 380" class="cls-2"
                          d="M221.29,59.86c-16.16,0-22-7.87-22-23.21v-29L192.28,6V1.43L215.9,1V6L208,7.64v29c0,12.44,4.14,16.17,13.67,16.17,10.37,0,13.68-4.56,13.68-17.41V7.64L227.51,6V1.43L251.13,1V6l-7,1.65V35.41C244.08,50.74,238.7,59.86,221.29,59.86Z"/>
                </g>
                <g id="Group_655" data-name="Group 655">
                    <path id="Path_381" data-name="Path 381" class="cls-1"
                          d="M9,71.78c3.71,0,5.49,2.7,5.49,6.73,0,4.28-2,6.72-5.49,6.72-3.75,0-5.49-2.7-5.49-6.72C3.48,74.22,5.46,71.78,9,71.78ZM9,83c1.79,0,2.83-1.32,2.83-4.48C11.8,76,11,74,9,74c-1.79,0-2.83,1.4-2.83,4.47C6.14,81.11,7,83,9,83Z"/>
                    <path id="Path_382" data-name="Path 382" class="cls-1"
                          d="M21.5,78a3,3,0,0,0-1-.2A1.64,1.64,0,0,0,18.8,79v6H16.4V75.74h1.86L18.54,77h.08a2.24,2.24,0,0,1,2.1-1.43,3.68,3.68,0,0,1,1.09.2Z"/>
                </g>
                <g id="Group_656" data-name="Group 656">
                    <path id="Path_383" data-name="Path 383" class="cls-1"
                          d="M22.66,75.73h1.28V74l2.4-.69v2.42h2.25v2H26.34v3.55c0,1.27.2,1.79.92,1.79a2.67,2.67,0,0,0,1.24-.3l.42,1.85a6.18,6.18,0,0,1-2.51.57c-1.68,0-2.48-.83-2.48-2.81V77.76H22.66Z"/>
                    <path id="Path_384" data-name="Path 384" class="cls-1"
                          d="M35.92,85V79.73c0-1.5-.35-2.13-1.46-2.13a1.91,1.91,0,0,0-1.79,1.48V85h-2.4V72h2.4v4.73h.07a3.19,3.19,0,0,1,2.74-1.29c1.88,0,2.84.87,2.84,3.75V85Z"/>
                    <path id="Path_385" data-name="Path 385" class="cls-1"
                          d="M44.44,75.47c2.94,0,4.34,2,4.34,4.88,0,3.11-1.59,4.88-4.34,4.88-2.94,0-4.36-2-4.36-4.88C40.08,77.25,41.68,75.47,44.44,75.47Zm0,7.73c1.24,0,1.86-.89,1.86-2.85,0-1.7-.51-2.84-1.86-2.84-1.18,0-1.89.83-1.89,2.84C42.55,82,43.11,83.2,44.44,83.2Z"/>
                    <path id="Path_386" data-name="Path 386" class="cls-1"
                          d="M50.63,75.73h1.75l.28,1.11h.08a3.07,3.07,0,0,1,2.73-1.37c2.29,0,3.48,1.41,3.48,4.64s-1.52,5.12-4.24,5.12A3.37,3.37,0,0,1,53,84.88v3.79h-2.4ZM53,78.91v3.85a2,2,0,0,0,1.37.44c1.36,0,2.07-.92,2.07-3.14,0-1.63-.52-2.55-1.72-2.55A1.67,1.67,0,0,0,53,78.91Z"/>
                    <path id="Path_387" data-name="Path 387" class="cls-1"
                          d="M60.74,76.27a9.73,9.73,0,0,1,3.88-.72c2.59,0,3.33,1.27,3.33,3.23,0,1.24-.13,2.5-.13,3.68A8,8,0,0,0,68.15,85h-2l-.38-1.27h-.1A3.07,3.07,0,0,1,63,85.12a2.61,2.61,0,0,1-2.82-2.39c0-.11,0-.21,0-.31,0-2.09,1.81-3,4.68-3h.7a3.18,3.18,0,0,0,0-.62c0-.93-.37-1.32-1.42-1.32a7.76,7.76,0,0,0-2.85.54Zm4.82,5.86v-1.2c-.24,0-.48,0-.7,0-1.23,0-2.21.31-2.21,1.16a1,1,0,0,0,1,1.1h.17a1.89,1.89,0,0,0,1.77-1Z"/>
                    <path id="Path_388" data-name="Path 388" class="cls-1"
                          d="M77.54,84.18a6,6,0,0,1-3.53,1c-3,0-4.31-1.84-4.31-4.88,0-3.23,1.65-4.88,4.44-4.88,1.87,0,3.7.87,3.7,3.74A9.28,9.28,0,0,1,77.65,81H72.11c.07,1.56.74,2.35,2.36,2.35a4,4,0,0,0,2.28-.7Zm-5.38-4.71H75.6c0-.09,0-.2,0-.3,0-1.13-.52-1.78-1.52-1.78-1.25,0-1.83.82-1.94,2.08Z"/>
                    <path id="Path_389" data-name="Path 389" class="cls-1"
                          d="M87.58,81.72A19.8,19.8,0,0,0,87.76,85H86l-.33-1.2h-.07a3,3,0,0,1-2.7,1.45c-2.31,0-3.66-1.48-3.66-4.74s1.48-5,4.21-5a4.42,4.42,0,0,1,1.69.28V72h2.4Zm-2.4.15V78a2,2,0,0,0-1.39-.41c-1.35,0-2,.82-2,3,0,1.57.54,2.62,1.74,2.62a1.59,1.59,0,0,0,1.67-1.33Z"/>
                    <path id="Path_390" data-name="Path 390" class="cls-1"
                          d="M91.2,71.83a1.4,1.4,0,0,1,1.56,1.22s0,0,0,.08c0,.72-.63,1.25-1.57,1.25s-1.5-.53-1.5-1.25a1.34,1.34,0,0,1,1.36-1.31Zm-1.15,3.9h2.4V85h-2.4Z"/>
                    <path id="Path_391" data-name="Path 391" class="cls-1"
                          d="M101.57,84.41a5.17,5.17,0,0,1-3,.83c-3,0-4-2-4-4.88,0-3.11,1.46-4.88,4.12-4.88a5.38,5.38,0,0,1,2.76.59l-.58,2a3.84,3.84,0,0,0-1.79-.43c-1.31,0-2,.84-2,2.76,0,1.55.66,2.75,2.16,2.75a3,3,0,0,0,1.79-.53Z"/>
                </g>
                <g id="Group_657" data-name="Group 657">
                    <path id="Path_392" data-name="Path 392" class="cls-1"
                          d="M107.69,72.16a21.83,21.83,0,0,1,3.7-.31c2.44,0,4.88.76,4.88,3.64a3.85,3.85,0,0,1-2.72,4l.91.57,3,4.93h-2.92l-2.94-5.06-1.33-.24V85h-2.53Zm2.53,2V78h1.07c1.41,0,2.31-.59,2.31-2.07,0-1.09-.72-1.77-2-1.77A6.09,6.09,0,0,0,110.22,74.2Z"/>
                </g>
                <g id="Group_658" data-name="Group 658">
                    <path id="Path_393" data-name="Path 393" class="cls-1"
                          d="M125.45,84.18a6,6,0,0,1-3.53,1c-3,0-4.31-1.84-4.31-4.88,0-3.23,1.65-4.88,4.44-4.88,1.86,0,3.7.87,3.7,3.74a9.28,9.28,0,0,1-.19,1.75H120c.07,1.56.74,2.35,2.36,2.35a4,4,0,0,0,2.28-.7Zm-5.38-4.71h3.44c0-.09,0-.2,0-.3,0-1.13-.52-1.78-1.52-1.78-1.26,0-1.83.82-2,2.08Z"/>
                    <path id="Path_394" data-name="Path 394" class="cls-1"
                          d="M127.24,78.28c0-1.81,1.13-2.81,3.16-2.81a7.14,7.14,0,0,1,3.24.72l-.54,1.74a7,7,0,0,0-2.39-.53c-.72,0-1.07.26-1.07.83,0,1.35,4.22.76,4.22,4,0,1.87-1.22,3-3.59,3A6.4,6.4,0,0,1,127,84.4l.66-1.79a5.78,5.78,0,0,0,2.57.7c.72,0,1.18-.24,1.18-.89C131.45,80.94,127.24,81.61,127.24,78.28Z"/>
                    <path id="Path_395" data-name="Path 395" class="cls-1"
                          d="M143,84.18a6,6,0,0,1-3.53,1c-3,0-4.31-1.84-4.31-4.88,0-3.23,1.64-4.88,4.43-4.88,1.87,0,3.7.87,3.7,3.74a8.52,8.52,0,0,1-.18,1.75h-5.55c.07,1.56.74,2.35,2.37,2.35a4,4,0,0,0,2.27-.7Zm-5.38-4.71h3.44c0-.09,0-.2,0-.3,0-1.13-.52-1.78-1.52-1.78-1.26,0-1.83.82-1.94,2.08Z"/>
                    <path id="Path_396" data-name="Path 396" class="cls-1"
                          d="M145.13,76.27a9.73,9.73,0,0,1,3.88-.72c2.59,0,3.33,1.27,3.33,3.23,0,1.24-.13,2.5-.13,3.68a8,8,0,0,0,.34,2.53h-2l-.39-1.27h-.09a3.1,3.1,0,0,1-2.72,1.4,2.61,2.61,0,0,1-2.82-2.39c0-.11,0-.21,0-.31,0-2.09,1.81-3,4.68-3h.7a3.18,3.18,0,0,0,0-.62c0-.93-.37-1.32-1.42-1.32a7.76,7.76,0,0,0-2.85.54ZM150,82.13v-1.2c-.24,0-.48,0-.7,0-1.24,0-2.22.31-2.22,1.16a1,1,0,0,0,1,1.1h.18a1.88,1.88,0,0,0,1.76-1Z"/>
                    <path id="Path_397" data-name="Path 397" class="cls-1"
                          d="M159.64,78a3,3,0,0,0-1-.2A1.64,1.64,0,0,0,156.94,79v6h-2.4V75.74h1.87l.28,1.22h.07a2.26,2.26,0,0,1,2.11-1.43,3.68,3.68,0,0,1,1.09.2Z"/>
                    <path id="Path_398" data-name="Path 398" class="cls-1"
                          d="M167.75,84.41a5.14,5.14,0,0,1-2.95.83c-3,0-4-2-4-4.88,0-3.11,1.46-4.88,4.12-4.88a5.37,5.37,0,0,1,2.75.59l-.57,2a3.84,3.84,0,0,0-1.79-.43c-1.32,0-2,.84-2,2.76,0,1.55.67,2.75,2.17,2.75a3,3,0,0,0,1.79-.53Z"/>
                    <path id="Path_399" data-name="Path 399" class="cls-1"
                          d="M175.05,85V79.73c0-1.5-.35-2.13-1.45-2.13a1.92,1.92,0,0,0-1.8,1.48V85h-2.4V72h2.4v4.73h.08a3.17,3.17,0,0,1,2.73-1.29c1.89,0,2.85.87,2.85,3.75V85Z"/>
                    <path id="Path_400" data-name="Path 400" class="cls-1" d="M184.83,72h2.53V85h-2.53Z"/>
                    <path id="Path_401" data-name="Path 401" class="cls-1"
                          d="M195.62,85V79.73c0-1.5-.4-2.13-1.42-2.13A1.91,1.91,0,0,0,192.37,79v6H190V75.73h1.9l.28,1.22h.07a3.43,3.43,0,0,1,2.94-1.48c1.85,0,2.86.87,2.86,3.76V85Z"/>
                    <path id="Path_402" data-name="Path 402" class="cls-1"
                          d="M199.84,78.28c0-1.81,1.13-2.81,3.16-2.81a7.14,7.14,0,0,1,3.24.72l-.54,1.74a7,7,0,0,0-2.39-.53c-.72,0-1.07.26-1.07.83,0,1.35,4.22.76,4.22,4,0,1.87-1.22,3-3.59,3a6.4,6.4,0,0,1-3.23-.83l.66-1.79a5.78,5.78,0,0,0,2.57.7c.72,0,1.18-.24,1.18-.89C204.06,80.94,199.84,81.61,199.84,78.28Z"/>
                    <path id="Path_403" data-name="Path 403" class="cls-1"
                          d="M207.25,75.73h1.28V74l2.4-.69v2.42h2.25v2h-2.26v3.55c0,1.27.2,1.79.93,1.79a2.67,2.67,0,0,0,1.24-.3l.42,1.85a6.22,6.22,0,0,1-2.51.57c-1.68,0-2.48-.83-2.48-2.81V77.76h-1.27Z"/>
                    <path id="Path_404" data-name="Path 404" class="cls-1"
                          d="M216.18,71.83a1.4,1.4,0,0,1,1.56,1.22s0,0,0,.08c0,.72-.63,1.25-1.57,1.25s-1.5-.53-1.5-1.25A1.34,1.34,0,0,1,216,71.82ZM215,75.73h2.4V85H215Z"/>
                    <path id="Path_405" data-name="Path 405" class="cls-1"
                          d="M219,75.73h1.28V74l2.4-.69v2.42H225v2h-2.25v3.55c0,1.27.2,1.79.92,1.79a2.67,2.67,0,0,0,1.24-.3l.43,1.85a6.26,6.26,0,0,1-2.52.57c-1.68,0-2.47-.83-2.47-2.81V77.76H219Z"/>
                    <path id="Path_406" data-name="Path 406" class="cls-1"
                          d="M229,75.73V81c0,1.5.3,2.13,1.31,2.13a1.92,1.92,0,0,0,1.81-1.41v-6h2.41v6.44a11,11,0,0,0,.3,2.8H233l-.42-1.36h-.08a3.38,3.38,0,0,1-3,1.62c-1.89,0-2.94-.87-2.94-3.75V75.73Z"/>
                    <path id="Path_407" data-name="Path 407" class="cls-1"
                          d="M235.81,75.73h1.27V74l2.4-.69v2.42h2.26v2h-2.26v3.55c0,1.27.2,1.79.93,1.79a2.7,2.7,0,0,0,1.24-.3l.42,1.85a6.22,6.22,0,0,1-2.51.57c-1.68,0-2.48-.83-2.48-2.81V77.76H235.8Z"/>
                </g>
                <g id="Group_659" data-name="Group 659">
                    <path id="Path_408" data-name="Path 408" class="cls-1"
                          d="M250.71,84.18a6,6,0,0,1-3.53,1c-3,0-4.31-1.84-4.31-4.88,0-3.23,1.64-4.88,4.43-4.88,1.87,0,3.7.87,3.7,3.74a8.52,8.52,0,0,1-.18,1.75h-5.55c.08,1.56.74,2.35,2.37,2.35a4,4,0,0,0,2.27-.7Zm-5.38-4.71h3.43c0-.09,0-.2,0-.3,0-1.13-.52-1.78-1.51-1.78-1.26,0-1.83.82-1.94,2.08Z"/>
                </g>
                <g id="Group_660" data-name="Group 660">
                    <path id="Path_409" data-name="Path 409" class="cls-2"
                          d="M10.54,100.22v.11a2.94,2.94,0,0,1,2.65,3.19h0c0,2.7-2.36,3.83-5.41,3.83a23.32,23.32,0,0,1-4.09-.3V94.3A28,28,0,0,1,7.77,94c2.61,0,5,.65,5,3.26A2.77,2.77,0,0,1,10.54,100.22Zm-3.27-.7a8.77,8.77,0,0,0,1-.06c.84-.27,1.52-.74,1.52-1.6,0-1.15-.94-1.41-1.94-1.41a9.26,9.26,0,0,0-1.39.08v3Zm2.86,3.79c0-1.44-1.23-1.57-2.38-1.57H6.49v3.09a12.91,12.91,0,0,0,1.52.09c1.11,0,2.12-.47,2.12-1.61Z"/>
                    <path id="Path_410" data-name="Path 410" class="cls-2"
                          d="M18.89,97.65c3,0,4.48,2,4.48,4.88,0,3.11-1.65,4.88-4.48,4.88-3,0-4.49-2-4.49-4.88C14.4,99.43,16.07,97.65,18.89,97.65Zm0,7.4c1.06,0,1.58-.74,1.58-2.52,0-1.61-.45-2.51-1.58-2.51-1,0-1.59.68-1.59,2.51C17.31,104.05,17.79,105.05,18.89,105.05Z"/>
                    <path id="Path_411" data-name="Path 411" class="cls-2"
                          d="M27.67,97.91v5.25c0,1.29.26,1.76,1.1,1.76a1.6,1.6,0,0,0,1.51-1.11v-5.9h2.81v6.35a11.71,11.71,0,0,0,.33,2.89H31.26l-.44-1.33h-.08a3.47,3.47,0,0,1-2.95,1.59c-1.87,0-2.93-.87-2.93-3.68V97.91Z"/>
                    <path id="Path_412" data-name="Path 412" class="cls-2"
                          d="M40.48,100.53a2.69,2.69,0,0,0-1-.18,1.61,1.61,0,0,0-1.63,1.05v5.75H35V97.91h2.25l.28,1.26h.07a2.3,2.3,0,0,1,2.13-1.46,2.43,2.43,0,0,1,1,.2Z"/>
                    <path id="Path_413" data-name="Path 413" class="cls-2"
                          d="M47.34,107.15v-5.23c0-1.31-.37-1.77-1.2-1.77a1.62,1.62,0,0,0-1.53,1.16v5.84H41.8V97.91h2.31l.27,1.26h.08a3.31,3.31,0,0,1,2.94-1.52c1.77,0,2.75.87,2.75,3.68v5.82Z"/>
                    <path id="Path_414" data-name="Path 414" class="cls-2"
                          d="M59.74,106.32a6.32,6.32,0,0,1-3.7,1.09c-3,0-4.4-1.81-4.4-4.88,0-3.27,1.72-4.88,4.6-4.88,2,0,3.79,1,3.79,3.72a9.67,9.67,0,0,1-.24,2H54.42c.11,1.27.72,1.83,2.11,1.83a4.22,4.22,0,0,0,2.29-.67Zm-5.23-4.62h2.94s0-.18,0-.35c0-.92-.45-1.48-1.3-1.48-1.16,0-1.59.83-1.66,1.83Z"/>
                    <path id="Path_415" data-name="Path 415" class="cls-2"
                          d="M66.78,107.15v-5c0-1.54-.22-2-1-2a1.42,1.42,0,0,0-1.36.92v6.08H61.61V97.91h2.25l.28,1.26h.07A3.13,3.13,0,0,1,67,97.65a2.19,2.19,0,0,1,2.33,1.57,2.92,2.92,0,0,1,2.64-1.57c2,0,2.85.87,2.85,4v5.54H72v-5c0-1.3-.15-2-1-2a1.33,1.33,0,0,0-1.35,1v6Z"/>
                    <path id="Path_416" data-name="Path 416" class="cls-2"
                          d="M80.76,97.65c3,0,4.47,2,4.47,4.88,0,3.11-1.65,4.88-4.47,4.88-3,0-4.5-2-4.5-4.88C76.27,99.43,77.93,97.65,80.76,97.65Zm0,7.4c1,0,1.57-.74,1.57-2.52,0-1.61-.45-2.51-1.57-2.51-1,0-1.59.68-1.59,2.51C79.17,104.05,79.65,105.05,80.76,105.05Z"/>
                    <path id="Path_417" data-name="Path 417" class="cls-2"
                          d="M89.54,97.91v5.25c0,1.29.25,1.76,1.09,1.76a1.6,1.6,0,0,0,1.51-1.11v-5.9H95v6.35a11.26,11.26,0,0,0,.34,2.89H93.12l-.44-1.33H92.6a3.47,3.47,0,0,1-2.95,1.59c-1.87,0-2.92-.87-2.92-3.68V97.91Z"/>
                    <path id="Path_418" data-name="Path 418" class="cls-2"
                          d="M96.08,97.91h1.2v-1.7l2.81-.8v2.5h2.14v2.37h-2.14v2.84c0,1.28.17,1.8.85,1.8a2.34,2.34,0,0,0,1.11-.24l.44,2.16a6.45,6.45,0,0,1-2.56.57c-1.78,0-2.65-.83-2.65-2.81v-4.32h-1.2Z"/>
                    <path id="Path_419" data-name="Path 419" class="cls-2"
                          d="M109.14,107.15v-5.23c0-1.31-.33-1.77-1.21-1.77a1.63,1.63,0,0,0-1.52,1.22v5.78H103.6V94.21h2.81V99h.08a3.12,3.12,0,0,1,2.71-1.3c1.8,0,2.76.87,2.76,3.68v5.82Z"/>
                    <path id="Path_420" data-name="Path 420" class="cls-2"
                          d="M125.48,94.21h2.81v8.23c0,3.44-1.88,5-4.71,5-3.33,0-5-1.55-5-4.62V94.21h3v8.15c0,1.76.65,2.39,2,2.39s1.94-.72,1.94-2.39Z"/>
                    <path id="Path_421" data-name="Path 421" class="cls-2"
                          d="M135.72,107.15v-5.23c0-1.31-.37-1.77-1.2-1.77a1.62,1.62,0,0,0-1.53,1.16v5.84h-2.81V97.91h2.31l.27,1.26h.08a3.31,3.31,0,0,1,2.93-1.52c1.78,0,2.76.87,2.76,3.68v5.82Z"/>
                    <path id="Path_422" data-name="Path 422" class="cls-2"
                          d="M142,94c1.09,0,1.77.63,1.77,1.45s-.68,1.36-1.77,1.36-1.72-.57-1.72-1.36S140.9,94,142,94Zm-1.37,3.94h2.81v9.24h-2.81Z"/>
                    <path id="Path_423" data-name="Path 423" class="cls-2"
                          d="M149.05,102.49l.24,1.28h.09l.19-1.31,1.35-4.55h3l-3.83,9.3h-1.83l-4-9.3h3.27Z"/>
                    <path id="Path_424" data-name="Path 424" class="cls-2"
                          d="M162.26,106.32a6.32,6.32,0,0,1-3.7,1.09c-3,0-4.4-1.81-4.4-4.88,0-3.27,1.72-4.88,4.6-4.88,2,0,3.79,1,3.79,3.72a9.67,9.67,0,0,1-.24,2h-5.38c.11,1.27.72,1.83,2.11,1.83a4.22,4.22,0,0,0,2.29-.67ZM157,101.7H160s0-.18,0-.35c0-.92-.44-1.48-1.29-1.48-1.17,0-1.59.83-1.67,1.83Z"/>
                    <path id="Path_425" data-name="Path 425" class="cls-2"
                          d="M169.58,100.53a2.69,2.69,0,0,0-1-.18,1.62,1.62,0,0,0-1.63,1.05v5.75h-2.81V97.91h2.25l.28,1.26h.08a2.27,2.27,0,0,1,2.12-1.46,2.47,2.47,0,0,1,1,.2Z"/>
                    <path id="Path_426" data-name="Path 426" class="cls-2"
                          d="M170.53,100.57c0-1.85,1.14-2.92,3.29-2.92a7.8,7.8,0,0,1,3.42.76l-.63,2a7.21,7.21,0,0,0-2.42-.54c-.56,0-.85.19-.85.61,0,1.13,4.1.63,4.1,3.85,0,2-1.3,3.09-3.76,3.09a6.89,6.89,0,0,1-3.3-.87l.77-2.06a5.53,5.53,0,0,0,2.57.7c.59,0,.91-.14.91-.61C174.63,103.42,170.53,103.94,170.53,100.57Z"/>
                    <path id="Path_427" data-name="Path 427" class="cls-2"
                          d="M180.47,94c1.09,0,1.77.63,1.77,1.45s-.68,1.36-1.77,1.36-1.72-.57-1.72-1.36S179.36,94,180.47,94Zm-1.37,3.94h2.81v9.24H179.1Z"/>
                    <path id="Path_428" data-name="Path 428" class="cls-2"
                          d="M183.24,97.91h1.2v-1.7l2.81-.8v2.5h2.15v2.37h-2.15v2.84c0,1.28.17,1.8.85,1.8a2.37,2.37,0,0,0,1.11-.24l.44,2.16a6.46,6.46,0,0,1-2.57.57c-1.77,0-2.64-.83-2.64-2.81v-4.32h-1.2Z"/>
                </g>
                <g id="Group_661" data-name="Group 661">
                    <path id="Path_429" data-name="Path 429" class="cls-2"
                          d="M194.6,102.75l.24,1.32H195l.17-1.32,1.26-4.84h2.88l-2.83,8.36c-1,2.9-1.68,4.67-3.45,4.67a3.62,3.62,0,0,1-1.74-.37l.53-2.2a1.34,1.34,0,0,0,.61.15c.52,0,1-.37,1.24-1.37l-3.92-9.24h3.39Z"/>
                </g>
            </g>
        </g>
    </g>
</svg>
