<svg version="1.1" id="Layer_1" xmlns="http://www.w3.org/2000/svg" x="0px" y="0px"
     viewBox="0 0 251.1 110.9" style="enable-background:new 0 0 251.1 110.9;" xml:space="preserve">
<style type="text/css">
	.st0 {
        fill: #D3005A;
    }

    .st1 {
        fill: #FFFFFF;
    }
</style>
    <g id="Layer_2_00000137093847518774432280000008714273373050960526_">
	<g id="Layer_1-2">
		<g id="Group_662">
			<g id="Group_651">
				<path id="Path_376" class="st0" d="M53.5,29.4c0,18.6-11.2,31.1-27.8,31.1S0,50.1,0,30.7C0,11.6,10.5,0,27.4,0
					C43.9,0,53.5,10.9,53.5,29.4z M14.1,30.2c0,13.7,3.7,19.9,12,19.9s13.3-5.4,13.3-20.3c0-13.7-4.1-19.5-12.4-19.5
					S14.1,15.5,14.1,30.2z"/>
                <path id="Path_377" class="st0" d="M56.8,59.4v-7l6.2-2.5v-39l-6.2-2.4v-7L75.8,1h6.3c13.6,0,21.6,5.6,21.6,16.9
					c0,7.8-3.7,12.8-9.4,15.7c1.4,1.6,2.6,3.5,3.5,5.4l5.6,11.3l5.6,2v7H93.7l-7-15.3c-2.8-6.3-3.6-7.6-8-7.6h-2.9v13.4l6,2.5v7
					H56.8z M80.6,27.8c6.6,0,10.4-3.1,10.4-8.7c0-4.7-3.2-8.1-8.3-8.1h-6.8v16.8H80.6z"/>
			</g>
            <g id="Group_652">
				<path id="Path_378" class="st0"
                      d="M113.1,59.4v-7l6.2-2.5v-39l-6.2-2.5v-7L138.4,1v7.4l-6.2,2.5v39l6.2,2.5v7L113.1,59.4z"/>
			</g>
            <g id="Group_653">
				<path id="Path_379" class="st1" d="M151.8,52.8V8l-7-1.7V1.8l15.6-0.4h9.5c10.4,0,17.8,4.6,17.8,14.5c0,7.5-3.8,11.7-10.8,13.4
					c8.7,2,12.9,6.9,12.9,13.5c0,11.6-7.5,16.6-21.1,16.6h-23.9v-5L151.8,52.8z M166.6,26.3c7.5,0,12.4-2.9,12.4-9.5
					c0-5.8-4.1-8.7-9.5-8.7h-9.1v18.2H166.6z M169.1,52.8c7.9,0,12-3.3,12-9.5c0-8.3-5.4-10.8-14.5-10.8h-6.2v20.3H169.1z"/>
			</g>
            <g id="Group_654">
				<path id="Path_380" class="st1" d="M221.3,59.9c-16.2,0-22-7.9-22-23.2v-29l-7-1.7V1.4L215.9,1v5L208,7.6v29
					c0,12.4,4.1,16.2,13.7,16.2c10.4,0,13.7-4.6,13.7-17.4V7.6L227.5,6V1.4L251.1,1v5l-7,1.7v27.8C244.1,50.7,238.7,59.9,221.3,59.9
					z"/>
			</g>
            <g id="Group_655">
				<path id="Path_381" class="st0" d="M9,71.8c3.7,0,5.5,2.7,5.5,6.7c0,4.3-2,6.7-5.5,6.7c-3.8,0-5.5-2.7-5.5-6.7
					C3.5,74.2,5.5,71.8,9,71.8z M9,83c1.8,0,2.8-1.3,2.8-4.5C11.8,76,11,74,9,74c-1.8,0-2.8,1.4-2.8,4.5C6.1,81.1,7,83,9,83z"/>
                <path id="Path_382" class="st0" d="M21.5,78c-0.3-0.1-0.7-0.2-1-0.2c-0.8-0.1-1.5,0.4-1.7,1.2v6h-2.4v-9.3h1.9l0.3,1.3h0.1
					c0.3-0.9,1.2-1.4,2.1-1.4c0.4,0,0.7,0.1,1.1,0.2L21.5,78z"/>
			</g>
            <g id="Group_656">
				<path id="Path_383" class="st0" d="M22.7,75.7h1.3V74l2.4-0.7v2.4h2.2v2h-2.2v3.6c0,1.3,0.2,1.8,0.9,1.8c0.4,0,0.9-0.1,1.2-0.3
					l0.4,1.8c-0.8,0.4-1.6,0.6-2.5,0.6c-1.7,0-2.5-0.8-2.5-2.8v-4.6h-1.3V75.7z"/>
                <path id="Path_384" class="st0" d="M35.9,85v-5.3c0-1.5-0.3-2.1-1.5-2.1c-0.9,0-1.6,0.6-1.8,1.5V85h-2.4V72h2.4v4.7h0.1
					c0.6-0.9,1.7-1.3,2.7-1.3c1.9,0,2.8,0.9,2.8,3.8V85H35.9z"/>
                <path id="Path_385" class="st0" d="M44.4,75.5c2.9,0,4.3,2,4.3,4.9c0,3.1-1.6,4.9-4.3,4.9c-2.9,0-4.4-2-4.4-4.9
					C40.1,77.2,41.7,75.5,44.4,75.5z M44.4,83.2c1.2,0,1.9-0.9,1.9-2.8c0-1.7-0.5-2.8-1.9-2.8c-1.2,0-1.9,0.8-1.9,2.8
					C42.5,82,43.1,83.2,44.4,83.2z"/>
                <path id="Path_386" class="st0" d="M50.6,75.7h1.8l0.3,1.1h0.1c0.6-0.9,1.6-1.4,2.7-1.4c2.3,0,3.5,1.4,3.5,4.6s-1.5,5.1-4.2,5.1
					c-0.6,0-1.2-0.1-1.7-0.4v3.8h-2.4L50.6,75.7z M53,78.9v3.8c0.4,0.3,0.9,0.5,1.4,0.4c1.4,0,2.1-0.9,2.1-3.1
					c0-1.6-0.5-2.6-1.7-2.6C53.9,77.5,53.1,78.1,53,78.9z"/>
                <path id="Path_387" class="st0" d="M60.7,76.3c1.2-0.5,2.6-0.7,3.9-0.7c2.6,0,3.3,1.3,3.3,3.2c0,1.2-0.1,2.5-0.1,3.7
					c0,0.9,0.1,1.7,0.3,2.5h-2l-0.4-1.3h-0.1c-0.6,0.9-1.6,1.4-2.7,1.4c-1.4,0.1-2.7-0.9-2.8-2.4c0,0,0,0,0,0c0-0.1,0-0.2,0-0.3
					c0-2.1,1.8-3,4.7-3h0.7c0-0.2,0-0.4,0-0.6c0-0.9-0.4-1.3-1.4-1.3c-1,0-1.9,0.2-2.8,0.5L60.7,76.3z M65.6,82.1v-1.2
					c-0.2,0-0.5,0-0.7,0c-1.2,0-2.2,0.3-2.2,1.2c-0.1,0.5,0.3,1,0.9,1.1c0,0,0.1,0,0.1,0h0.2C64.6,83.2,65.2,82.8,65.6,82.1
					L65.6,82.1z"/>
                <path id="Path_388" class="st0" d="M77.5,84.2c-1,0.7-2.3,1-3.5,1c-3,0-4.3-1.8-4.3-4.9c0-3.2,1.7-4.9,4.4-4.9
					c1.9,0,3.7,0.9,3.7,3.7c0,0.6-0.1,1.2-0.2,1.8h-5.5c0.1,1.6,0.7,2.3,2.4,2.3c0.8,0,1.6-0.2,2.3-0.7L77.5,84.2z M72.2,79.5h3.4
					c0-0.1,0-0.2,0-0.3c0-1.1-0.5-1.8-1.5-1.8C72.8,77.4,72.2,78.2,72.2,79.5L72.2,79.5z"/>
                <path id="Path_389" class="st0" d="M87.6,81.7c0,1.1,0,2.2,0.2,3.3H86l-0.3-1.2h-0.1c-0.6,0.9-1.6,1.5-2.7,1.4
					c-2.3,0-3.7-1.5-3.7-4.7s1.5-5,4.2-5c0.6,0,1.2,0.1,1.7,0.3V72h2.4L87.6,81.7z M85.2,81.9V78c-0.4-0.3-0.9-0.5-1.4-0.4
					c-1.3,0-2,0.8-2,3c0,1.6,0.5,2.6,1.7,2.6C84.3,83.3,85.1,82.7,85.2,81.9L85.2,81.9z"/>
                <path id="Path_390" class="st0" d="M91.2,71.8c0.8-0.1,1.5,0.5,1.6,1.2c0,0,0,0,0,0c0,0,0,0,0,0.1c0,0.7-0.6,1.2-1.6,1.2
					s-1.5-0.5-1.5-1.2c0-0.7,0.6-1.3,1.4-1.3L91.2,71.8z M90,75.7h2.4V85H90V75.7z"/>
                <path id="Path_391" class="st0" d="M101.6,84.4c-0.9,0.6-1.9,0.9-3,0.8c-3,0-4-2-4-4.9c0-3.1,1.5-4.9,4.1-4.9
					c1-0.1,1.9,0.2,2.8,0.6l-0.6,2c-0.6-0.3-1.2-0.4-1.8-0.4c-1.3,0-2,0.8-2,2.8c0,1.6,0.7,2.8,2.2,2.8c0.6,0,1.3-0.2,1.8-0.5
					L101.6,84.4z"/>
			</g>
            <g id="Group_657">
				<path id="Path_392" class="st0" d="M107.7,72.2c1.2-0.2,2.5-0.3,3.7-0.3c2.4,0,4.9,0.8,4.9,3.6c0.1,1.8-1,3.5-2.7,4l0.9,0.6
					l3,4.9h-2.9l-2.9-5.1l-1.3-0.2V85h-2.5L107.7,72.2z M110.2,74.2V78h1.1c1.4,0,2.3-0.6,2.3-2.1c0-1.1-0.7-1.8-2-1.8
					C111.1,74.1,110.7,74.1,110.2,74.2L110.2,74.2z"/>
			</g>
            <g id="Group_658">
				<path id="Path_393" class="st0" d="M125.4,84.2c-1,0.7-2.3,1-3.5,1c-3,0-4.3-1.8-4.3-4.9c0-3.2,1.7-4.9,4.4-4.9
					c1.9,0,3.7,0.9,3.7,3.7c0,0.6-0.1,1.2-0.2,1.8H120c0.1,1.6,0.7,2.3,2.4,2.3c0.8,0,1.6-0.2,2.3-0.7L125.4,84.2z M120.1,79.5h3.4
					c0-0.1,0-0.2,0-0.3c0-1.1-0.5-1.8-1.5-1.8C120.7,77.4,120.2,78.2,120.1,79.5L120.1,79.5z"/>
                <path id="Path_394" class="st0" d="M127.2,78.3c0-1.8,1.1-2.8,3.2-2.8c1.1,0,2.2,0.2,3.2,0.7l-0.5,1.7c-0.8-0.3-1.6-0.5-2.4-0.5
					c-0.7,0-1.1,0.3-1.1,0.8c0,1.3,4.2,0.8,4.2,4c0,1.9-1.2,3-3.6,3c-1.1,0-2.3-0.3-3.3-0.8l0.7-1.8c0.8,0.4,1.7,0.7,2.6,0.7
					c0.7,0,1.2-0.2,1.2-0.9C131.4,80.9,127.2,81.6,127.2,78.3z"/>
                <path id="Path_395" class="st0" d="M143,84.2c-1,0.7-2.3,1-3.5,1c-3,0-4.3-1.8-4.3-4.9c0-3.2,1.6-4.9,4.4-4.9
					c1.9,0,3.7,0.9,3.7,3.7c0,0.6-0.1,1.2-0.2,1.8h-5.6c0.1,1.6,0.7,2.3,2.4,2.3c0.8,0,1.6-0.2,2.3-0.7L143,84.2z M137.6,79.5h3.4
					c0-0.1,0-0.2,0-0.3c0-1.1-0.5-1.8-1.5-1.8C138.3,77.4,137.7,78.2,137.6,79.5L137.6,79.5z"/>
                <path id="Path_396" class="st0" d="M145.1,76.3c1.2-0.5,2.6-0.7,3.9-0.7c2.6,0,3.3,1.3,3.3,3.2c0,1.2-0.1,2.5-0.1,3.7
					c0,0.9,0.1,1.7,0.3,2.5h-2l-0.4-1.3h-0.1c-0.6,0.9-1.6,1.4-2.7,1.4c-1.4,0.1-2.7-0.9-2.8-2.4c0,0,0,0,0,0c0-0.1,0-0.2,0-0.3
					c0-2.1,1.8-3,4.7-3h0.7c0-0.2,0-0.4,0-0.6c0-0.9-0.4-1.3-1.4-1.3c-1,0-1.9,0.2-2.9,0.5L145.1,76.3z M150,82.1v-1.2
					c-0.2,0-0.5,0-0.7,0c-1.2,0-2.2,0.3-2.2,1.2c-0.1,0.5,0.3,1,0.9,1.1c0,0,0.1,0,0.1,0h0.2C149,83.2,149.7,82.8,150,82.1L150,82.1
					z"/>
                <path id="Path_397" class="st0" d="M159.6,78c-0.3-0.1-0.7-0.2-1-0.2c-0.8-0.1-1.5,0.4-1.7,1.2v6h-2.4v-9.3h1.9l0.3,1.2h0.1
					c0.3-0.9,1.2-1.4,2.1-1.4c0.4,0,0.7,0.1,1.1,0.2L159.6,78z"/>
                <path id="Path_398" class="st0" d="M167.8,84.4c-0.9,0.6-1.9,0.9-2.9,0.8c-3,0-4-2-4-4.9c0-3.1,1.5-4.9,4.1-4.9
					c1-0.1,1.9,0.2,2.8,0.6l-0.6,2c-0.6-0.3-1.2-0.4-1.8-0.4c-1.3,0-2,0.8-2,2.8c0,1.6,0.7,2.8,2.2,2.8c0.6,0,1.3-0.2,1.8-0.5
					L167.8,84.4z"/>
                <path id="Path_399" class="st0" d="M175.1,85v-5.3c0-1.5-0.4-2.1-1.4-2.1c-0.9,0-1.6,0.6-1.8,1.5V85h-2.4V72h2.4v4.7h0.1
					c0.6-0.9,1.7-1.3,2.7-1.3c1.9,0,2.9,0.9,2.9,3.8V85H175.1z"/>
                <path id="Path_400" class="st0" d="M184.8,72h2.5v13h-2.5V72z"/>
                <path id="Path_401" class="st0" d="M195.6,85v-5.3c0-1.5-0.4-2.1-1.4-2.1c-0.9,0-1.6,0.6-1.8,1.4v6H190v-9.3h1.9l0.3,1.2h0.1
					c0.7-1,1.8-1.5,2.9-1.5c1.9,0,2.9,0.9,2.9,3.8V85H195.6z"/>
                <path id="Path_402" class="st0" d="M199.8,78.3c0-1.8,1.1-2.8,3.2-2.8c1.1,0,2.2,0.2,3.2,0.7l-0.5,1.7c-0.8-0.3-1.6-0.5-2.4-0.5
					c-0.7,0-1.1,0.3-1.1,0.8c0,1.3,4.2,0.8,4.2,4c0,1.9-1.2,3-3.6,3c-1.1,0-2.2-0.3-3.2-0.8l0.7-1.8c0.8,0.4,1.7,0.7,2.6,0.7
					c0.7,0,1.2-0.2,1.2-0.9C204.1,80.9,199.8,81.6,199.8,78.3z"/>
                <path id="Path_403" class="st0" d="M207.2,75.7h1.3V74l2.4-0.7v2.4h2.2v2h-2.3v3.6c0,1.3,0.2,1.8,0.9,1.8c0.4,0,0.9-0.1,1.2-0.3
					l0.4,1.8c-0.8,0.4-1.6,0.6-2.5,0.6c-1.7,0-2.5-0.8-2.5-2.8v-4.6h-1.3V75.7z"/>
                <path id="Path_404" class="st0" d="M216.2,71.8c0.8-0.1,1.5,0.5,1.6,1.2c0,0,0,0,0,0c0,0,0,0,0,0.1c0,0.7-0.6,1.2-1.6,1.2
					s-1.5-0.5-1.5-1.2c0-0.7,0.6-1.3,1.3-1.3L216.2,71.8z M215,75.7h2.4V85H215V75.7z"/>
                <path id="Path_405" class="st0" d="M219,75.7h1.3V74l2.4-0.7v2.4h2.3v2h-2.2v3.6c0,1.3,0.2,1.8,0.9,1.8c0.4,0,0.9-0.1,1.2-0.3
					l0.4,1.8c-0.8,0.4-1.6,0.6-2.5,0.6c-1.7,0-2.5-0.8-2.5-2.8v-4.6H219V75.7z"/>
                <path id="Path_406" class="st0" d="M229,75.7V81c0,1.5,0.3,2.1,1.3,2.1c0.8,0,1.6-0.6,1.8-1.4v-6h2.4v6.4c0,0.9,0.1,1.9,0.3,2.8
					H233l-0.4-1.4h-0.1c-0.6,1-1.8,1.7-3,1.6c-1.9,0-2.9-0.9-2.9-3.8v-5.7H229z"/>
                <path id="Path_407" class="st0" d="M235.8,75.7h1.3V74l2.4-0.7v2.4h2.3v2h-2.3v3.6c0,1.3,0.2,1.8,0.9,1.8c0.4,0,0.9-0.1,1.2-0.3
					l0.4,1.8c-0.8,0.4-1.6,0.6-2.5,0.6c-1.7,0-2.5-0.8-2.5-2.8v-4.6h-1.3L235.8,75.7z"/>
			</g>
            <g id="Group_659">
				<path id="Path_408" class="st0" d="M250.7,84.2c-1,0.7-2.3,1-3.5,1c-3,0-4.3-1.8-4.3-4.9c0-3.2,1.6-4.9,4.4-4.9
					c1.9,0,3.7,0.9,3.7,3.7c0,0.6-0.1,1.2-0.2,1.8h-5.6c0.1,1.6,0.7,2.3,2.4,2.3c0.8,0,1.6-0.2,2.3-0.7L250.7,84.2z M245.3,79.5h3.4
					c0-0.1,0-0.2,0-0.3c0-1.1-0.5-1.8-1.5-1.8C246,77.4,245.4,78.2,245.3,79.5L245.3,79.5z"/>
			</g>
            <g id="Group_660">
				<path id="Path_409" class="st1" d="M10.5,100.2v0.1c1.6,0.2,2.8,1.6,2.7,3.2l0,0c0,2.7-2.4,3.8-5.4,3.8c-1.4,0-2.7-0.1-4.1-0.3
					V94.3C5,94.1,6.4,94,7.8,94c2.6,0,5,0.7,5,3.3C12.9,98.7,11.9,99.9,10.5,100.2z M7.3,99.5c0.3,0,0.7,0,1-0.1
					c0.8-0.3,1.5-0.7,1.5-1.6c0-1.2-0.9-1.4-1.9-1.4c-0.5,0-0.9,0-1.4,0.1v3L7.3,99.5z M10.1,103.3c0-1.4-1.2-1.6-2.4-1.6H6.5v3.1
					c0.5,0.1,1,0.1,1.5,0.1C9.1,104.9,10.1,104.4,10.1,103.3z"/>
                <path id="Path_410" class="st1" d="M18.9,97.7c3,0,4.5,2,4.5,4.9c0,3.1-1.6,4.9-4.5,4.9c-3,0-4.5-2-4.5-4.9
					C14.4,99.4,16.1,97.7,18.9,97.7z M18.9,105.1c1.1,0,1.6-0.7,1.6-2.5c0-1.6-0.5-2.5-1.6-2.5c-1,0-1.6,0.7-1.6,2.5
					C17.3,104.1,17.8,105.1,18.9,105.1z"/>
                <path id="Path_411" class="st1" d="M27.7,97.9v5.2c0,1.3,0.3,1.8,1.1,1.8c0.7,0,1.3-0.5,1.5-1.1v-5.9h2.8v6.3
					c0,1,0.1,1.9,0.3,2.9h-2.2l-0.4-1.3h-0.1c-0.6,1-1.8,1.6-3,1.6c-1.9,0-2.9-0.9-2.9-3.7v-5.8H27.7z"/>
                <path id="Path_412" class="st1" d="M40.5,100.5c-0.3-0.1-0.7-0.2-1-0.2c-0.7-0.1-1.4,0.4-1.6,1.1v5.8H35v-9.2h2.2l0.3,1.3h0.1
					c0.3-0.9,1.2-1.5,2.1-1.5c0.3,0,0.7,0.1,1,0.2L40.5,100.5z"/>
                <path id="Path_413" class="st1" d="M47.3,107.2v-5.2c0-1.3-0.4-1.8-1.2-1.8c-0.7,0-1.3,0.5-1.5,1.2v5.8h-2.8v-9.2h2.3l0.3,1.3
					h0.1c0.6-1,1.8-1.6,2.9-1.5c1.8,0,2.8,0.9,2.8,3.7v5.8L47.3,107.2z"/>
                <path id="Path_414" class="st1" d="M59.7,106.3c-1.1,0.7-2.4,1.1-3.7,1.1c-3,0-4.4-1.8-4.4-4.9c0-3.3,1.7-4.9,4.6-4.9
					c2,0,3.8,1,3.8,3.7c0,0.7-0.1,1.3-0.2,2h-5.4c0.1,1.3,0.7,1.8,2.1,1.8c0.8,0,1.6-0.2,2.3-0.7L59.7,106.3z M54.5,101.7h2.9
					c0,0,0-0.2,0-0.3c0-0.9-0.5-1.5-1.3-1.5C55,99.9,54.6,100.7,54.5,101.7L54.5,101.7z"/>
                <path id="Path_415" class="st1" d="M66.8,107.2v-5c0-1.5-0.2-2-1-2c-0.6,0-1.1,0.4-1.4,0.9v6.1h-2.8v-9.2h2.2l0.3,1.3h0.1
					c0.6-1,1.7-1.6,2.8-1.5c1.1-0.1,2,0.6,2.3,1.6c0.5-1,1.5-1.6,2.6-1.6c2,0,2.8,0.9,2.8,4v5.5H72v-5c0-1.3-0.2-2-1-2
					c-0.6,0-1.2,0.4-1.3,1v6L66.8,107.2z"/>
                <path id="Path_416" class="st1" d="M80.8,97.7c3,0,4.5,2,4.5,4.9c0,3.1-1.7,4.9-4.5,4.9c-3,0-4.5-2-4.5-4.9
					C76.3,99.4,77.9,97.7,80.8,97.7z M80.8,105.1c1,0,1.6-0.7,1.6-2.5c0-1.6-0.4-2.5-1.6-2.5c-1,0-1.6,0.7-1.6,2.5
					C79.2,104.1,79.7,105.1,80.8,105.1z"/>
                <path id="Path_417" class="st1" d="M89.5,97.9v5.2c0,1.3,0.2,1.8,1.1,1.8c0.7,0,1.3-0.5,1.5-1.1v-5.9H95v6.3
					c0,1,0.1,1.9,0.3,2.9h-2.2l-0.4-1.3h-0.1c-0.6,1-1.8,1.6-2.9,1.6c-1.9,0-2.9-0.9-2.9-3.7v-5.8H89.5z"/>
                <path id="Path_418" class="st1" d="M96.1,97.9h1.2v-1.7l2.8-0.8v2.5h2.1v2.4h-2.1v2.8c0,1.3,0.2,1.8,0.8,1.8
					c0.4,0,0.8-0.1,1.1-0.2l0.4,2.2c-0.8,0.4-1.7,0.6-2.6,0.6c-1.8,0-2.7-0.8-2.7-2.8v-4.3h-1.2V97.9z"/>
                <path id="Path_419" class="st1" d="M109.1,107.2v-5.2c0-1.3-0.3-1.8-1.2-1.8c-0.7,0-1.3,0.5-1.5,1.2v5.8h-2.8V94.2h2.8V99h0.1
					c0.6-0.9,1.6-1.4,2.7-1.3c1.8,0,2.8,0.9,2.8,3.7v5.8L109.1,107.2z"/>
                <path id="Path_420" class="st1" d="M125.5,94.2h2.8v8.2c0,3.4-1.9,5-4.7,5c-3.3,0-5-1.6-5-4.6v-8.6h3v8.2c0,1.8,0.7,2.4,2,2.4
					s1.9-0.7,1.9-2.4L125.5,94.2z"/>
                <path id="Path_421" class="st1" d="M135.7,107.2v-5.2c0-1.3-0.4-1.8-1.2-1.8c-0.7,0-1.3,0.5-1.5,1.2v5.8h-2.8v-9.2h2.3l0.3,1.3
					h0.1c0.6-1,1.8-1.6,2.9-1.5c1.8,0,2.8,0.9,2.8,3.7v5.8L135.7,107.2z"/>
                <path id="Path_422" class="st1" d="M142,94c1.1,0,1.8,0.6,1.8,1.4s-0.7,1.4-1.8,1.4s-1.7-0.6-1.7-1.4S140.9,94,142,94z
					 M140.6,97.9h2.8v9.2h-2.8V97.9z"/>
                <path id="Path_423" class="st1"
                      d="M149.1,102.5l0.2,1.3h0.1l0.2-1.3l1.4-4.6h3l-3.8,9.3h-1.8l-4-9.3h3.3L149.1,102.5z"/>
                <path id="Path_424" class="st1" d="M162.3,106.3c-1.1,0.7-2.4,1.1-3.7,1.1c-3,0-4.4-1.8-4.4-4.9c0-3.3,1.7-4.9,4.6-4.9
					c2,0,3.8,1,3.8,3.7c0,0.7-0.1,1.3-0.2,2h-5.4c0.1,1.3,0.7,1.8,2.1,1.8c0.8,0,1.6-0.2,2.3-0.7L162.3,106.3z M157,101.7h3
					c0,0,0-0.2,0-0.3c0-0.9-0.4-1.5-1.3-1.5C157.5,99.9,157.1,100.7,157,101.7L157,101.7z"/>
                <path id="Path_425" class="st1" d="M169.6,100.5c-0.3-0.1-0.7-0.2-1-0.2c-0.7,0-1.4,0.4-1.6,1.1v5.8h-2.8v-9.2h2.2l0.3,1.3h0.1
					c0.3-0.9,1.2-1.5,2.1-1.5c0.3,0,0.7,0.1,1,0.2L169.6,100.5z"/>
                <path id="Path_426" class="st1" d="M170.5,100.6c0-1.8,1.1-2.9,3.3-2.9c1.2,0,2.4,0.3,3.4,0.8l-0.6,2c-0.8-0.3-1.6-0.5-2.4-0.5
					c-0.6,0-0.9,0.2-0.9,0.6c0,1.1,4.1,0.6,4.1,3.8c0,2-1.3,3.1-3.8,3.1c-1.2,0-2.3-0.3-3.3-0.9l0.8-2.1c0.8,0.4,1.7,0.7,2.6,0.7
					c0.6,0,0.9-0.1,0.9-0.6C174.6,103.4,170.5,103.9,170.5,100.6z"/>
                <path id="Path_427" class="st1" d="M180.5,94c1.1,0,1.8,0.6,1.8,1.4s-0.7,1.4-1.8,1.4s-1.7-0.6-1.7-1.4S179.4,94,180.5,94z
					 M179.1,97.9h2.8v9.2h-2.8V97.9z"/>
                <path id="Path_428" class="st1" d="M183.2,97.9h1.2v-1.7l2.8-0.8v2.5h2.1v2.4h-2.1v2.8c0,1.3,0.2,1.8,0.9,1.8
					c0.4,0,0.8-0.1,1.1-0.2l0.4,2.2c-0.8,0.4-1.7,0.6-2.6,0.6c-1.8,0-2.6-0.8-2.6-2.8v-4.3h-1.2V97.9z"/>
			</g>
            <g id="Group_661">
				<path id="Path_429" class="st1" d="M194.6,102.8l0.2,1.3h0.2l0.2-1.3l1.3-4.8h2.9l-2.8,8.4c-1,2.9-1.7,4.7-3.4,4.7
					c-0.6,0-1.2-0.1-1.7-0.4l0.5-2.2c0.2,0.1,0.4,0.1,0.6,0.2c0.5,0,1-0.4,1.2-1.4l-3.9-9.2h3.4L194.6,102.8z"/>
			</g>
		</g>
	</g>
</g>
</svg>
