<svg xmlns="http://www.w3.org/2000/svg" viewBox="0 0 108.55 26.15">
    <defs>
        <style>.cls-1 {
            fill: #d3005a;
        }

        .cls-2 {
            fill: #00060c;
        }</style>
    </defs>
    <g id="Layer_2" data-name="Layer 2">
        <g id="Layer_1-2" data-name="Layer 1">
            <g id="Group_647" data-name="Group 647">
                <g id="Group_647-2" data-name="Group 647-2">
                    <path id="Path_371" data-name="Path 371" class="cls-1"
                          d="M23.11,12.72c0,8.06-4.84,13.43-12,13.43S0,21.68,0,13.25C0,5,4.55,0,11.82,0S23.11,4.73,23.11,12.72Zm-17,.36c0,5.91,1.61,8.6,5.19,8.6S17,19.35,17,12.9C17,7,15.22,4.48,11.64,4.48S6.09,6.7,6.09,13.08Z"/>
                    <path id="Path_372" data-name="Path 372" class="cls-1"
                          d="M24.54,25.69v-3l2.68-1.08V4.73L24.54,3.66V.61L32.78.43H35.5c5.88,0,9.31,2.44,9.31,7.31a7.08,7.08,0,0,1-4,6.77,10.78,10.78,0,0,1,1.5,2.33l2.4,4.91,2.43.9v3H40.47l-3-6.62c-1.21-2.73-1.54-3.3-3.43-3.3H32.77v5.8l2.58,1.07v3.05ZM34.82,12c2.83,0,4.48-1.36,4.48-3.77a3.35,3.35,0,0,0-3.17-3.51,2.94,2.94,0,0,0-.42,0H32.78V12Z"/>
                </g>
                <g id="Group_648" data-name="Group 648">
                    <path id="Path_373" data-name="Path 373" class="cls-1"
                          d="M48.9,25.69v-3l2.68-1.08V4.73L48.9,3.66V.61L59.82.43V3.66L57.14,4.73V21.57l2.68,1.08v3Z"/>
                </g>
                <g id="Group_649" data-name="Group 649">
                    <path id="Path_374" data-name="Path 374" class="cls-2"
                          d="M65.63,22.82V3.48l-3-.72v-2L69.32.61h4.12c4.48,0,7.7,2,7.7,6.27,0,3.23-1.65,5.05-4.66,5.8,3.76.86,5.55,3,5.55,5.84,0,5-3.22,7.17-9.13,7.17H62.58V23.54ZM72,11.36c3.22,0,5.37-1.25,5.37-4.12,0-2.51-1.79-3.76-4.12-3.76H69.32v7.88Zm1.07,11.46c3.4,0,5.2-1.43,5.2-4.12,0-3.58-2.33-4.65-6.27-4.65H69.32v8.77Z"/>
                </g>
                <g id="Group_650" data-name="Group 650">
                    <path id="Path_375" data-name="Path 375" class="cls-2"
                          d="M95.65,25.88c-7,0-9.49-3.4-9.49-10V3.31l-3-.72v-2L93.32.44V2.59l-3.4.72V15.85c0,5.37,1.79,7,5.91,7,4.48,0,5.91-2,5.91-7.52v-12l-3.4-.71v-2L108.55.45V2.6l-3,.71v12C105.5,21.94,103.17,25.88,95.65,25.88Z"/>
                </g>
            </g>
        </g>
    </g>
</svg>
