<?xml version="1.0" encoding="UTF-8"?>
<svg id="Layer_2" xmlns="http://www.w3.org/2000/svg" viewBox="0 0 770.46 101.55">
    <defs>
        <style>.cls-1 {
            fill: #1E1D1B;
        }

        .cls-2 {
            fill: #e0006d;
        }</style>
    </defs>
    <g id="Layer_1-2">
        <g>
            <path class="cls-2"
                  d="M42.31,99.37c-8.65,0-16.13-1.84-22.45-5.53-6.33-3.69-11.22-9.12-14.67-16.31C1.73,70.34,0,61.47,0,50.91c0-8.46,1.09-15.88,3.28-22.25,2.18-6.37,5.28-11.67,9.28-15.9,4-4.23,8.76-7.42,14.26-9.55,5.5-2.14,11.62-3.21,18.36-3.21s12.63,1.05,17.95,3.14c5.32,2.09,9.87,5.14,13.65,9.15,3.78,4.01,6.71,8.99,8.8,14.95,2.09,5.96,3.14,12.85,3.14,20.68,0,10.65-1.93,19.82-5.8,27.5-3.87,7.69-9.26,13.6-16.17,17.74-6.92,4.14-15.06,6.21-24.43,6.21Zm1.5-15.01c4.55,0,8.6-1.11,12.15-3.34,3.55-2.23,6.39-5.96,8.53-11.19,2.14-5.23,3.21-12.26,3.21-21.09,0-8.19-.98-14.76-2.94-19.72-1.96-4.96-4.66-8.53-8.12-10.72-3.46-2.18-7.55-3.28-12.28-3.28s-8.6,1.09-12.15,3.28c-3.55,2.18-6.3,5.82-8.26,10.92-1.96,5.1-2.93,12.1-2.93,21.02,0,8.19,.91,14.77,2.73,19.72,1.82,4.96,4.44,8.6,7.85,10.92,3.41,2.32,7.48,3.48,12.22,3.48Z"/>
            <path class="cls-2"
                  d="M99.1,97.73v-9.83l12.56-3.55-2.46,3.82V11.74l3.41,4.1-13.51-3.69V2.32l30.44-.68h13.24c10.92,0,19.15,2.28,24.71,6.82,5.55,4.55,8.33,11.1,8.33,19.66,0,7.64-2.34,13.97-7.03,18.97-4.69,5.01-12.04,8.05-22.04,9.15l.14-2.18c3.55,.09,6.46,.64,8.74,1.64,2.27,1,4.16,2.39,5.66,4.16s2.89,3.89,4.16,6.35l10.92,21.02-5.6-3.41,12.56,4.1v9.83h-22.39l-12.28-26.34c-1.64-3.46-3.05-6.12-4.23-7.99-1.18-1.86-2.64-3.14-4.37-3.82-1.73-.68-4.23-.98-7.51-.89h-7.1l3.28-2.73v32.21l-2.59-3.96,13.79,3.69v9.83h-40.81Zm29.62-47.77l-3.28-4.78h11.33c6.37,0,11.15-1.32,14.33-3.96,3.18-2.64,4.78-6.55,4.78-11.74,0-4.37-1.28-7.78-3.82-10.24-2.55-2.46-6.46-3.69-11.74-3.69h-14.88l3.28-3V49.96Z"/>
            <path class="cls-2"
                  d="M229.72,11.47l-12.01,4.09,2.05-3V87.22l-2.05-2.87,12.01,3.55v9.83h-39.58v-9.83l11.88-3.41-1.77,2.73V12.56l2.46,3-12.56-3.41V2.32l39.58-.68V11.47Z"/>
            <path class="cls-1"
                  d="M284.59,49.69l.82-1.23c6.19,.09,11.42,1.07,15.7,2.93,4.28,1.87,7.48,4.53,9.62,7.99,2.14,3.46,3.21,7.64,3.21,12.56s-1.21,9.58-3.62,13.44c-2.41,3.87-6.19,6.89-11.33,9.08-5.14,2.18-11.72,3.28-19.72,3.28h-37.95v-5.87l13.51-2.87-1.77,2.46V9.01l2.18,2.59-13.92-2.59V3.14l22.52-.68h16.93c6.55,0,12.01,.91,16.38,2.73,4.37,1.82,7.64,4.46,9.83,7.92,2.18,3.46,3.28,7.69,3.28,12.69,0,6.55-2,11.88-6.01,15.97-4.01,4.1-10.56,6.74-19.66,7.92Zm-6.14-39.04h-16.24l2.05-2.05V46.96l-2.05-1.91h12.83c5.37,0,9.83-.68,13.38-2.05,3.55-1.36,6.19-3.37,7.92-6.01,1.73-2.64,2.59-5.87,2.59-9.69s-.77-6.82-2.32-9.28c-1.55-2.46-3.82-4.3-6.82-5.53-3-1.23-6.78-1.84-11.33-1.84Zm0,78.9c5.37,0,9.83-.73,13.38-2.18,3.55-1.45,6.21-3.53,7.98-6.21,1.77-2.68,2.66-5.98,2.66-9.9s-.8-7.07-2.39-9.76c-1.59-2.68-3.91-4.75-6.96-6.21-3.05-1.45-6.71-2.18-10.99-2.18h-19.93l2.05-2.18v40.54l-2.05-1.91h16.24Z"/>
            <path class="cls-1"
                  d="M386.28,3.14l34.81-.68v5.87l-13.51,3,1.64-2.87V61.7c0,3.37-.27,6.82-.82,10.37-.55,3.55-1.55,6.92-3,10.1-1.46,3.19-3.5,6.05-6.14,8.6-2.64,2.55-6.07,4.55-10.31,6.01s-9.44,2.18-15.63,2.18c-6.92,0-12.6-.87-17.06-2.59-4.46-1.73-7.92-4.03-10.37-6.89-2.46-2.87-4.19-5.91-5.19-9.15-1-3.23-1.64-6.35-1.91-9.35s-.41-5.6-.41-7.78V8.46l1.64,2.87-13.38-2.32V3.14l34.81-.68v5.87l-13.38,3,1.5-2.87V63.2c0,2.28,.09,4.66,.27,7.17,.18,2.5,.66,4.94,1.43,7.3,.77,2.37,2.02,4.48,3.75,6.35,1.73,1.87,4.07,3.37,7.03,4.5,2.96,1.14,6.76,1.71,11.4,1.71s8.62-.59,11.67-1.77c3.05-1.18,5.46-2.77,7.23-4.78,1.77-2,3.07-4.25,3.89-6.76,.82-2.5,1.32-5.05,1.5-7.64,.18-2.59,.27-5.12,.27-7.58V8.46l1.36,2.73-13.1-2.18V3.14Z"/>
        </g>
        <g>
            <path class="cls-2"
                  d="M454.84,41.82c.52-.09,1.09-.18,1.69-.26s1.21-.14,1.81-.19c.6-.05,1.19-.08,1.76-.1,.57-.02,1.09-.03,1.57-.03,1.11,0,2.21,.1,3.29,.31,1.08,.2,2.05,.56,2.9,1.06,.85,.5,1.54,1.19,2.05,2.06,.51,.88,.77,1.97,.77,3.29,0,1.96-.46,3.55-1.36,4.78-.91,1.23-2.13,2.08-3.65,2.56l1.67,1.06,5.46,9.11h-5.39l-5.43-9.35-2.46-.44v9.79h-4.67v-23.65Zm7.17,3.58c-.48,0-.95,.01-1.42,.03-.47,.02-.83,.07-1.08,.14v6.93h1.98c1.3,0,2.33-.3,3.1-.89,.77-.59,1.16-1.57,1.16-2.93,0-1.02-.32-1.83-.96-2.41s-1.57-.87-2.8-.87Z"/>
            <path class="cls-2"
                  d="M487.3,64c-.68,.55-1.61,1.01-2.78,1.38-1.17,.38-2.42,.56-3.74,.56-2.75,0-4.77-.8-6.04-2.41-1.27-1.6-1.91-3.8-1.91-6.6,0-3,.72-5.25,2.15-6.76,1.43-1.5,3.45-2.25,6.04-2.25,.86,0,1.71,.11,2.52,.34,.82,.23,1.55,.6,2.18,1.13,.64,.52,1.15,1.23,1.54,2.12s.58,1.99,.58,3.31c0,.48-.03,.99-.08,1.54-.06,.55-.14,1.12-.26,1.71h-10.24c.07,1.43,.44,2.51,1.11,3.24s1.76,1.09,3.26,1.09c.93,0,1.77-.14,2.51-.43,.74-.28,1.3-.57,1.69-.87l1.47,2.9Zm-6.35-12.52c-1.16,0-2.02,.35-2.58,1.04-.56,.69-.89,1.62-1.01,2.78h6.35c.09-1.23-.1-2.17-.56-2.83-.47-.66-1.2-.99-2.2-.99Z"/>
            <path class="cls-2"
                  d="M498.04,60.76c0-.46-.19-.82-.58-1.09s-.87-.52-1.43-.75c-.57-.23-1.19-.46-1.88-.7-.68-.24-1.31-.57-1.88-.99-.57-.42-1.05-.96-1.43-1.6s-.58-1.48-.58-2.51c0-1.68,.5-2.97,1.5-3.86s2.45-1.33,4.33-1.33c1.3,0,2.47,.14,3.51,.41,1.05,.27,1.87,.58,2.46,.92l-.99,3.21c-.52-.2-1.18-.42-1.98-.65-.8-.23-1.6-.34-2.42-.34-1.32,0-1.98,.51-1.98,1.54,0,.41,.19,.74,.58,.99,.39,.25,.86,.48,1.43,.7,.57,.22,1.19,.45,1.88,.7,.68,.25,1.31,.58,1.88,.97,.57,.4,1.05,.92,1.43,1.55,.39,.64,.58,1.46,.58,2.46,0,1.73-.55,3.09-1.66,4.08-1.1,.99-2.76,1.48-4.96,1.48-1.21,0-2.34-.15-3.4-.46s-1.92-.67-2.58-1.07l1.23-3.31c.52,.3,1.22,.59,2.08,.87,.86,.28,1.75,.43,2.66,.43,.66,0,1.19-.12,1.59-.38,.4-.25,.6-.67,.6-1.26Z"/>
            <path class="cls-2"
                  d="M519.03,64c-.68,.55-1.61,1.01-2.78,1.38-1.17,.38-2.42,.56-3.74,.56-2.75,0-4.77-.8-6.04-2.41-1.27-1.6-1.91-3.8-1.91-6.6,0-3,.72-5.25,2.15-6.76,1.43-1.5,3.45-2.25,6.04-2.25,.86,0,1.71,.11,2.52,.34,.82,.23,1.55,.6,2.18,1.13,.64,.52,1.15,1.23,1.54,2.12s.58,1.99,.58,3.31c0,.48-.03,.99-.08,1.54-.06,.55-.14,1.12-.26,1.71h-10.24c.07,1.43,.44,2.51,1.11,3.24s1.76,1.09,3.26,1.09c.93,0,1.77-.14,2.51-.43,.74-.28,1.3-.57,1.69-.87l1.47,2.9Zm-6.35-12.52c-1.16,0-2.02,.35-2.58,1.04-.56,.69-.89,1.62-1.01,2.78h6.35c.09-1.23-.1-2.17-.56-2.83-.47-.66-1.2-.99-2.2-.99Z"/>
            <path class="cls-2"
                  d="M522.61,49.4c.91-.41,1.99-.73,3.24-.97,1.25-.24,2.56-.36,3.92-.36,1.18,0,2.17,.14,2.97,.43,.8,.29,1.43,.69,1.89,1.21,.47,.52,.8,1.15,.99,1.88,.19,.73,.29,1.55,.29,2.46,0,1-.03,2.01-.1,3.02-.07,1.01-.11,2.01-.12,2.99-.01,.98,.02,1.93,.08,2.85s.24,1.79,.51,2.61h-3.62l-.72-2.35h-.17c-.46,.71-1.09,1.31-1.89,1.83-.81,.51-1.85,.77-3.12,.77-.8,0-1.51-.12-2.15-.36-.64-.24-1.18-.58-1.64-1.02-.46-.44-.81-.97-1.06-1.57-.25-.6-.38-1.28-.38-2.03,0-1.05,.23-1.93,.7-2.65,.47-.72,1.14-1.3,2.01-1.74,.88-.44,1.92-.75,3.14-.92,1.22-.17,2.58-.22,4.08-.15,.16-1.27,.07-2.19-.27-2.75-.34-.56-1.1-.84-2.29-.84-.89,0-1.83,.09-2.81,.27-.99,.18-1.8,.42-2.44,.72l-1.06-3.31Zm5.63,12.69c.89,0,1.59-.2,2.12-.6,.52-.4,.91-.82,1.16-1.28v-2.22c-.71-.07-1.38-.08-2.03-.03-.65,.05-1.22,.15-1.72,.31-.5,.16-.9,.39-1.19,.68-.3,.3-.44,.67-.44,1.13,0,.64,.19,1.13,.56,1.48,.38,.35,.89,.53,1.55,.53Z"/>
            <path class="cls-2"
                  d="M549.06,52.57c-.71-.25-1.34-.38-1.91-.38-.8,0-1.46,.21-2,.63-.54,.42-.89,.96-1.08,1.62v11.02h-4.44v-17.06h3.45l.51,2.25h.14c.39-.84,.91-1.49,1.57-1.94s1.43-.68,2.32-.68c.59,0,1.26,.13,2.01,.38l-.58,4.16Z"/>
            <path class="cls-2"
                  d="M563.7,64.41c-.68,.5-1.51,.88-2.47,1.14s-1.96,.39-2.99,.39c-1.37,0-2.52-.22-3.46-.65-.94-.43-1.71-1.04-2.3-1.83-.59-.79-1.02-1.73-1.28-2.85-.26-1.11-.39-2.34-.39-3.69,0-2.89,.65-5.11,1.95-6.67s3.18-2.34,5.66-2.34c1.25,0,2.26,.1,3.02,.31,.76,.21,1.45,.47,2.06,.79l-1.06,3.62c-.52-.25-1.04-.44-1.55-.58-.51-.14-1.1-.21-1.76-.21-1.23,0-2.16,.4-2.8,1.21-.64,.81-.96,2.1-.96,3.87,0,.73,.08,1.4,.24,2.01s.4,1.15,.72,1.6c.32,.46,.73,.81,1.25,1.08,.51,.26,1.11,.39,1.79,.39,.75,0,1.39-.1,1.91-.29,.52-.19,.99-.43,1.4-.7l1.02,3.38Z"/>
            <path class="cls-2"
                  d="M576.84,65.47v-9.69c0-1.39-.19-2.39-.58-3s-1.09-.92-2.12-.92c-.75,0-1.44,.26-2.06,.77-.63,.51-1.04,1.17-1.25,1.96v10.89h-4.44v-23.89h4.44v8.74h.14c.55-.73,1.22-1.31,2.01-1.74,.8-.43,1.81-.65,3.04-.65,.86,0,1.63,.11,2.29,.34,.66,.23,1.21,.6,1.66,1.13,.44,.52,.77,1.23,.99,2.13,.22,.9,.32,2.01,.32,3.33v10.61h-4.44Z"/>
            <path class="cls-2" d="M594.2,41.58h4.67v23.89h-4.67v-23.89Z"/>
            <path class="cls-2"
                  d="M613.79,65.47v-9.69c0-1.39-.2-2.39-.6-3-.4-.61-1.08-.92-2.03-.92-.84,0-1.55,.25-2.13,.73-.58,.49-1,1.1-1.25,1.83v11.06h-4.44v-17.06h3.51l.51,2.25h.14c.52-.73,1.22-1.36,2.08-1.91,.86-.55,1.98-.82,3.34-.82,.84,0,1.59,.11,2.25,.34,.66,.23,1.22,.6,1.67,1.13,.46,.52,.8,1.23,1.02,2.13,.23,.9,.34,2.01,.34,3.33v10.61h-4.44Z"/>
            <path class="cls-2"
                  d="M629.01,60.76c0-.46-.19-.82-.58-1.09s-.87-.52-1.43-.75c-.57-.23-1.19-.46-1.88-.7-.68-.24-1.31-.57-1.88-.99-.57-.42-1.05-.96-1.43-1.6s-.58-1.48-.58-2.51c0-1.68,.5-2.97,1.5-3.86s2.45-1.33,4.33-1.33c1.3,0,2.47,.14,3.51,.41,1.05,.27,1.87,.58,2.46,.92l-.99,3.21c-.52-.2-1.18-.42-1.98-.65-.8-.23-1.6-.34-2.42-.34-1.32,0-1.98,.51-1.98,1.54,0,.41,.19,.74,.58,.99,.39,.25,.86,.48,1.43,.7,.57,.22,1.19,.45,1.88,.7,.68,.25,1.31,.58,1.88,.97,.57,.4,1.05,.92,1.43,1.55,.39,.64,.58,1.46,.58,2.46,0,1.73-.55,3.09-1.66,4.08-1.1,.99-2.76,1.48-4.96,1.48-1.21,0-2.34-.15-3.4-.46s-1.92-.67-2.58-1.07l1.23-3.31c.52,.3,1.22,.59,2.08,.87,.86,.28,1.75,.43,2.66,.43,.66,0,1.19-.12,1.59-.38,.4-.25,.6-.67,.6-1.26Z"/>
            <path class="cls-2"
                  d="M634.57,48.41h2.35v-3.21l4.44-1.26v4.47h4.16v3.75h-4.16v6.55c0,1.18,.12,2.03,.36,2.54,.24,.51,.69,.77,1.35,.77,.45,0,.85-.04,1.18-.14,.33-.09,.7-.23,1.11-.41l.78,3.41c-.61,.3-1.33,.55-2.15,.75-.82,.21-1.65,.31-2.49,.31-1.57,0-2.72-.4-3.46-1.21-.74-.81-1.11-2.13-1.11-3.98v-8.6h-2.35v-3.75Z"/>
            <path class="cls-2"
                  d="M648.02,43.6c0-.66,.24-1.22,.73-1.69,.49-.47,1.17-.7,2.03-.7s1.56,.23,2.1,.7c.53,.47,.8,1.03,.8,1.69s-.27,1.21-.8,1.65c-.54,.44-1.23,.67-2.1,.67s-1.54-.22-2.03-.67c-.49-.44-.73-.99-.73-1.65Zm.65,4.81h4.44v17.06h-4.44v-17.06Z"/>
            <path class="cls-2"
                  d="M655.66,48.41h2.35v-3.21l4.44-1.26v4.47h4.16v3.75h-4.16v6.55c0,1.18,.12,2.03,.36,2.54,.24,.51,.69,.77,1.35,.77,.45,0,.85-.04,1.18-.14,.33-.09,.7-.23,1.11-.41l.78,3.41c-.61,.3-1.33,.55-2.15,.75-.82,.21-1.65,.31-2.49,.31-1.57,0-2.72-.4-3.46-1.21-.74-.81-1.11-2.13-1.11-3.98v-8.6h-2.35v-3.75Z"/>
            <path class="cls-2"
                  d="M673.61,48.41v9.69c0,1.39,.16,2.39,.49,3,.33,.61,.97,.92,1.93,.92,.84,0,1.54-.25,2.1-.75,.56-.5,.97-1.11,1.25-1.84v-11.02h4.44v11.88c0,.93,.04,1.85,.14,2.75,.09,.9,.23,1.71,.41,2.44h-3.34l-.78-2.53h-.14c-.52,.87-1.25,1.58-2.18,2.15-.93,.57-2.04,.85-3.31,.85-.87,0-1.64-.11-2.32-.34-.68-.23-1.25-.6-1.71-1.13-.46-.52-.8-1.23-1.04-2.12s-.36-2-.36-3.34v-10.61h4.44Z"/>
            <path class="cls-2"
                  d="M685.93,48.41h2.35v-3.21l4.44-1.26v4.47h4.16v3.75h-4.16v6.55c0,1.18,.12,2.03,.36,2.54,.24,.51,.69,.77,1.35,.77,.45,0,.85-.04,1.18-.14,.33-.09,.7-.23,1.11-.41l.78,3.41c-.61,.3-1.33,.55-2.15,.75-.82,.21-1.65,.31-2.49,.31-1.57,0-2.72-.4-3.46-1.21-.74-.81-1.11-2.13-1.11-3.98v-8.6h-2.35v-3.75Z"/>
            <path class="cls-2"
                  d="M713.09,64c-.68,.55-1.61,1.01-2.78,1.38-1.17,.38-2.42,.56-3.74,.56-2.75,0-4.77-.8-6.04-2.41-1.27-1.6-1.91-3.8-1.91-6.6,0-3,.72-5.25,2.15-6.76,1.43-1.5,3.45-2.25,6.04-2.25,.86,0,1.71,.11,2.52,.34,.82,.23,1.55,.6,2.18,1.13,.64,.52,1.15,1.23,1.54,2.12s.58,1.99,.58,3.31c0,.48-.03,.99-.08,1.54-.06,.55-.14,1.12-.26,1.71h-10.24c.07,1.43,.44,2.51,1.11,3.24s1.76,1.09,3.26,1.09c.93,0,1.77-.14,2.51-.43,.74-.28,1.3-.57,1.69-.87l1.47,2.9Zm-6.35-12.52c-1.16,0-2.02,.35-2.58,1.04-.56,.69-.89,1.62-1.01,2.78h6.35c.09-1.23-.1-2.17-.56-2.83-.47-.66-1.2-.99-2.2-.99Z"/>
        </g>
        <g>
            <path class="cls-2"
                  d="M454.09,15.19c0-3.98,.88-7.05,2.63-9.2s4.25-3.22,7.51-3.22c1.71,0,3.2,.3,4.47,.89,1.27,.59,2.33,1.43,3.17,2.53,.84,1.09,1.47,2.4,1.88,3.92,.41,1.52,.61,3.22,.61,5.08,0,3.98-.88,7.05-2.64,9.2-1.76,2.15-4.26,3.22-7.49,3.22-1.73,0-3.23-.3-4.5-.89-1.27-.59-2.33-1.43-3.16-2.52-.83-1.09-1.45-2.4-1.86-3.92-.41-1.52-.61-3.22-.61-5.08Zm4.91,0c0,1.21,.1,2.31,.31,3.33s.52,1.88,.94,2.61c.42,.73,.96,1.3,1.62,1.71,.66,.41,1.44,.61,2.35,.61,1.66,0,2.95-.65,3.86-1.94,.91-1.3,1.36-3.4,1.36-6.31,0-1.16-.1-2.24-.29-3.24s-.49-1.88-.9-2.63c-.41-.75-.94-1.34-1.6-1.76-.66-.42-1.47-.63-2.42-.63-1.66,0-2.95,.67-3.86,2-.91,1.33-1.36,3.42-1.36,6.26Z"/>
            <path class="cls-2"
                  d="M487.02,14.24c-.71-.25-1.34-.38-1.91-.38-.8,0-1.46,.21-2,.63-.54,.42-.89,.96-1.08,1.62v11.02h-4.44V10.07h3.45l.51,2.25h.14c.39-.84,.91-1.49,1.57-1.94s1.43-.68,2.32-.68c.59,0,1.26,.13,2.01,.38l-.58,4.16Z"/>
            <path class="cls-2"
                  d="M488.83,10.07h2.35v-3.21l4.44-1.26v4.47h4.16v3.75h-4.16v6.55c0,1.18,.12,2.03,.36,2.54,.24,.51,.69,.77,1.35,.77,.45,0,.85-.04,1.18-.14,.33-.09,.7-.23,1.11-.41l.78,3.41c-.61,.3-1.33,.55-2.15,.75-.82,.21-1.65,.31-2.49,.31-1.57,0-2.72-.4-3.46-1.21-.74-.81-1.11-2.13-1.11-3.98V13.83h-2.35v-3.75Z"/>
            <path class="cls-2"
                  d="M512.96,27.14v-9.69c0-1.39-.19-2.39-.58-3s-1.09-.92-2.12-.92c-.75,0-1.44,.26-2.06,.77-.63,.51-1.04,1.17-1.25,1.96v10.89h-4.44V3.25h4.44V11.98h.14c.55-.73,1.22-1.31,2.01-1.74,.8-.43,1.81-.65,3.04-.65,.86,0,1.63,.11,2.29,.34,.66,.23,1.21,.6,1.66,1.13,.44,.52,.77,1.23,.99,2.13,.22,.9,.32,2.01,.32,3.33v10.61h-4.44Z"/>
            <path class="cls-2"
                  d="M520.29,18.6c0-2.89,.71-5.11,2.12-6.67,1.41-1.56,3.39-2.34,5.94-2.34,1.36,0,2.55,.22,3.55,.65,1,.43,1.83,1.04,2.49,1.83,.66,.79,1.15,1.73,1.48,2.85,.33,1.11,.49,2.34,.49,3.69,0,2.89-.7,5.11-2.1,6.67-1.4,1.56-3.37,2.34-5.92,2.34-1.37,0-2.55-.22-3.55-.65-1-.43-1.84-1.04-2.51-1.83-.67-.79-1.17-1.73-1.5-2.85-.33-1.11-.5-2.34-.5-3.69Zm4.57,0c0,.75,.07,1.45,.2,2.08,.14,.64,.34,1.19,.61,1.67,.27,.48,.63,.85,1.08,1.11,.44,.26,.97,.39,1.59,.39,1.16,0,2.02-.42,2.59-1.26,.57-.84,.85-2.17,.85-3.99,0-1.57-.26-2.84-.79-3.8-.52-.97-1.41-1.45-2.66-1.45-1.09,0-1.95,.41-2.56,1.23s-.92,2.16-.92,4.03Z"/>
            <path class="cls-2"
                  d="M539.44,10.07h3.24l.51,2.05h.14c.59-.86,1.29-1.5,2.1-1.91,.81-.41,1.79-.61,2.95-.61,2.14,0,3.74,.68,4.81,2.03s1.6,3.53,1.6,6.53c0,1.46-.17,2.77-.51,3.94-.34,1.17-.85,2.17-1.52,2.99s-1.49,1.44-2.46,1.88c-.97,.43-2.08,.65-3.33,.65-.71,0-1.29-.05-1.74-.15s-.91-.27-1.37-.49v7h-4.44V10.07Zm7.61,3.28c-.86,0-1.54,.22-2.03,.65s-.87,1.08-1.14,1.94v7.1c.32,.25,.67,.45,1.04,.6,.38,.15,.87,.22,1.48,.22,1.27,0,2.23-.45,2.87-1.35,.64-.9,.96-2.38,.96-4.45,0-1.5-.25-2.66-.75-3.48-.5-.82-1.31-1.23-2.42-1.23Z"/>
            <path class="cls-2"
                  d="M557.76,11.06c.91-.41,1.99-.73,3.24-.97,1.25-.24,2.56-.36,3.92-.36,1.18,0,2.17,.14,2.97,.43,.8,.29,1.43,.69,1.89,1.21,.47,.52,.8,1.15,.99,1.88,.19,.73,.29,1.55,.29,2.46,0,1-.03,2.01-.1,3.02-.07,1.01-.11,2.01-.12,2.99-.01,.98,.02,1.93,.08,2.85s.24,1.79,.51,2.61h-3.62l-.72-2.35h-.17c-.46,.71-1.09,1.31-1.89,1.83-.81,.51-1.85,.77-3.12,.77-.8,0-1.51-.12-2.15-.36-.64-.24-1.18-.58-1.64-1.02-.46-.44-.81-.97-1.06-1.57-.25-.6-.38-1.28-.38-2.03,0-1.05,.23-1.93,.7-2.65,.47-.72,1.14-1.3,2.01-1.74,.88-.44,1.92-.75,3.14-.92,1.22-.17,2.58-.22,4.08-.15,.16-1.27,.07-2.19-.27-2.75-.34-.56-1.1-.84-2.29-.84-.89,0-1.83,.09-2.81,.27-.99,.18-1.8,.42-2.44,.72l-1.06-3.31Zm5.63,12.69c.89,0,1.59-.2,2.12-.6,.52-.4,.91-.82,1.16-1.28v-2.22c-.71-.07-1.38-.08-2.03-.03-.65,.05-1.22,.15-1.72,.31-.5,.16-.9,.39-1.19,.68-.3,.3-.44,.67-.44,1.13,0,.64,.19,1.13,.56,1.48,.38,.35,.89,.53,1.55,.53Z"/>
            <path class="cls-2"
                  d="M588.44,25.67c-.68,.55-1.61,1.01-2.78,1.38-1.17,.38-2.42,.56-3.74,.56-2.75,0-4.77-.8-6.04-2.41-1.27-1.6-1.91-3.8-1.91-6.6,0-3,.72-5.25,2.15-6.76,1.43-1.5,3.45-2.25,6.04-2.25,.86,0,1.71,.11,2.52,.34,.82,.23,1.55,.6,2.18,1.13,.64,.52,1.15,1.23,1.54,2.12s.58,1.99,.58,3.31c0,.48-.03,.99-.08,1.54-.06,.55-.14,1.12-.26,1.71h-10.24c.07,1.43,.44,2.51,1.11,3.24s1.76,1.09,3.26,1.09c.93,0,1.77-.14,2.51-.43,.74-.28,1.3-.57,1.69-.87l1.47,2.9Zm-6.35-12.52c-1.16,0-2.02,.35-2.58,1.04-.56,.69-.89,1.62-1.01,2.78h6.35c.09-1.23-.1-2.17-.56-2.83-.47-.66-1.2-.99-2.2-.99Z"/>
            <path class="cls-2"
                  d="M606.63,21.13c0,.96,.01,1.91,.03,2.87,.02,.96,.12,2.01,.31,3.17h-3.17l-.61-2.22h-.14c-.46,.8-1.11,1.44-1.96,1.93-.85,.49-1.86,.73-3.02,.73-2.14,0-3.8-.7-4.98-2.12-1.18-1.41-1.77-3.62-1.77-6.62s.66-5.17,1.98-6.79c1.32-1.62,3.25-2.42,5.8-2.42,.71,0,1.29,.04,1.74,.12,.46,.08,.91,.21,1.37,.39V3.25h4.44V21.13Zm-7.54,2.73c.86,0,1.55-.21,2.05-.63,.5-.42,.85-1.03,1.06-1.83v-7.23c-.32-.25-.67-.44-1.06-.56-.39-.12-.89-.19-1.5-.19-1.25,0-2.19,.42-2.82,1.26-.63,.84-.94,2.29-.94,4.33,0,1.46,.26,2.63,.77,3.51s1.33,1.33,2.44,1.33Z"/>
            <path class="cls-2"
                  d="M610.28,5.26c0-.66,.24-1.22,.73-1.69,.49-.47,1.17-.7,2.03-.7s1.56,.23,2.1,.7c.53,.47,.8,1.03,.8,1.69s-.27,1.21-.8,1.65c-.54,.44-1.23,.67-2.1,.67s-1.54-.22-2.03-.67c-.49-.44-.73-.99-.73-1.65Zm.65,4.81h4.44V27.14h-4.44V10.07Z"/>
            <path class="cls-2"
                  d="M631.78,26.08c-.68,.5-1.51,.88-2.47,1.14s-1.96,.39-2.99,.39c-1.37,0-2.52-.22-3.46-.65-.94-.43-1.71-1.04-2.3-1.83-.59-.79-1.02-1.73-1.28-2.85-.26-1.11-.39-2.34-.39-3.69,0-2.89,.65-5.11,1.95-6.67s3.18-2.34,5.66-2.34c1.25,0,2.26,.1,3.02,.31,.76,.21,1.45,.47,2.06,.79l-1.06,3.62c-.52-.25-1.04-.44-1.55-.58-.51-.14-1.1-.21-1.76-.21-1.23,0-2.16,.4-2.8,1.21-.64,.81-.96,2.1-.96,3.87,0,.73,.08,1.4,.24,2.01s.4,1.15,.72,1.6c.32,.46,.73,.81,1.25,1.08,.51,.26,1.11,.39,1.79,.39,.75,0,1.39-.1,1.91-.29,.52-.19,.99-.43,1.4-.7l1.02,3.38Z"/>
        </g>
        <g>
            <path class="cls-1"
                  d="M468.33,78.72c0,.51-.08,1.03-.25,1.56-.16,.53-.41,1.03-.74,1.49-.33,.46-.75,.86-1.26,1.21-.51,.35-1.11,.61-1.81,.8v.12c.61,.1,1.2,.28,1.76,.52s1.06,.58,1.49,1.01c.43,.43,.78,.95,1.04,1.56s.4,1.34,.4,2.18c0,1.1-.23,2.06-.69,2.87-.46,.81-1.06,1.47-1.81,1.98-.75,.51-1.6,.89-2.56,1.13-.96,.25-1.94,.37-2.94,.37h-1.23c-.47,0-.96-.02-1.47-.05-.51-.03-1.02-.07-1.53-.12-.51-.05-.96-.13-1.35-.23v-21.12c.75-.12,1.63-.22,2.64-.31,1-.08,2.09-.12,3.28-.12,.8,0,1.61,.07,2.44,.2,.83,.13,1.58,.39,2.25,.77,.67,.38,1.23,.9,1.67,1.58,.44,.67,.66,1.54,.66,2.6Zm-8.8,4.54c.35,0,.77-.01,1.26-.03,.49-.02,.9-.05,1.23-.09,.49-.16,.95-.36,1.38-.6,.43-.23,.81-.51,1.15-.83,.34-.32,.6-.68,.8-1.1,.19-.42,.29-.87,.29-1.36,0-.67-.13-1.23-.38-1.67-.26-.44-.6-.79-1.03-1.06-.43-.27-.92-.45-1.47-.57-.55-.11-1.11-.17-1.69-.17-.67,0-1.29,.02-1.85,.05-.56,.03-.99,.08-1.27,.14v7.29h1.59Zm1.69,10.05c.65,0,1.29-.08,1.9-.23s1.15-.4,1.62-.74c.47-.34,.84-.75,1.12-1.24,.28-.49,.41-1.07,.41-1.75,0-.84-.17-1.51-.51-2.02-.34-.51-.78-.91-1.32-1.19s-1.15-.48-1.82-.58c-.67-.1-1.35-.15-2.02-.15h-2.67v7.69c.14,.04,.35,.07,.61,.09,.27,.02,.55,.04,.86,.06,.31,.02,.62,.04,.95,.05,.33,.01,.61,.02,.86,.02Z"/>
            <path class="cls-1"
                  d="M472.2,87.61c0-2.59,.58-4.58,1.73-5.96,1.15-1.38,2.81-2.07,4.98-2.07,1.14,0,2.14,.19,2.99,.57,.85,.38,1.55,.92,2.1,1.62,.55,.71,.96,1.55,1.23,2.54,.26,.99,.4,2.09,.4,3.29,0,2.6-.58,4.58-1.73,5.96-1.15,1.38-2.81,2.07-4.98,2.07-1.14,0-2.14-.19-2.99-.57-.85-.38-1.55-.92-2.1-1.62-.55-.7-.96-1.55-1.23-2.54-.27-.99-.4-2.09-.4-3.29Zm2.54,0c0,.78,.08,1.52,.23,2.24,.15,.72,.39,1.34,.72,1.87,.33,.53,.76,.96,1.29,1.29,.53,.33,1.17,.49,1.93,.49,2.78,.02,4.17-1.94,4.17-5.88,0-.8-.08-1.55-.23-2.27-.15-.72-.39-1.34-.72-1.87-.33-.53-.76-.96-1.29-1.27-.53-.32-1.18-.48-1.93-.48-2.78-.02-4.17,1.94-4.17,5.88Z"/>
            <path class="cls-1"
                  d="M491.69,79.94v8.73c0,.8,.05,1.5,.14,2.1s.25,1.1,.48,1.5c.22,.4,.53,.7,.92,.9,.39,.2,.88,.31,1.47,.31,.55,0,1.04-.09,1.47-.26,.43-.17,.81-.41,1.15-.72s.63-.66,.89-1.06c.25-.4,.46-.82,.63-1.27v-10.24h2.45v10.97c0,.74,.03,1.5,.08,2.28,.05,.79,.14,1.48,.26,2.07h-1.69l-.61-2.42h-.15c-.47,.8-1.1,1.46-1.9,1.99-.8,.53-1.81,.8-3.03,.8-.82,0-1.54-.1-2.16-.29s-1.14-.54-1.56-1.03c-.42-.49-.74-1.15-.95-1.98-.21-.83-.32-1.87-.32-3.14v-9.26h2.45Z"/>
            <path class="cls-1"
                  d="M513.23,82.3c-.61-.2-1.2-.31-1.75-.31-.88,0-1.57,.24-2.08,.72-.51,.48-.83,1.09-.95,1.82v10.73h-2.45v-15.32h1.72l.46,1.87h.12c.39-.69,.85-1.23,1.39-1.61,.54-.38,1.23-.57,2.07-.57,.59,0,1.26,.1,1.99,.31l-.52,2.36Z"/>
            <path class="cls-1"
                  d="M526.26,95.27v-8.73c0-1.59-.23-2.79-.69-3.6-.46-.81-1.3-1.21-2.53-1.21-1.08,0-1.98,.29-2.68,.87-.71,.58-1.2,1.31-1.49,2.19v10.48h-2.45v-15.32h1.72l.46,1.87h.12c.49-.65,1.15-1.19,1.98-1.61,.83-.42,1.81-.63,2.96-.63,.84,0,1.57,.1,2.21,.29,.63,.19,1.16,.54,1.58,1.03,.42,.49,.74,1.15,.95,1.98,.21,.83,.32,1.88,.32,3.14v9.26h-2.45Z"/>
            <path class="cls-1"
                  d="M544.37,94.04c-.61,.49-1.38,.88-2.31,1.16-.93,.29-1.92,.43-2.96,.43-1.16,0-2.18-.19-3.03-.57-.86-.38-1.56-.92-2.12-1.62-.55-.7-.96-1.55-1.23-2.53-.27-.98-.4-2.08-.4-3.31,0-2.61,.58-4.61,1.75-5.98,1.16-1.37,2.83-2.05,5-2.05,.69,0,1.39,.08,2.08,.23s1.32,.44,1.87,.87c.55,.43,1,1.04,1.35,1.82s.52,1.82,.52,3.11c0,.67-.06,1.42-.18,2.24h-9.84c0,.9,.09,1.7,.28,2.39,.18,.69,.47,1.28,.86,1.76,.39,.48,.89,.85,1.52,1.1,.62,.26,1.38,.38,2.28,.38,.69,0,1.39-.12,2.08-.37s1.22-.53,1.56-.86l.92,1.78Zm-5.27-12.32c-1.21,0-2.17,.32-2.9,.95-.73,.63-1.16,1.72-1.3,3.25h7.6c0-1.55-.3-2.64-.89-3.26-.59-.62-1.43-.94-2.51-.94Z"/>
            <path class="cls-1"
                  d="M557.73,95.27v-8.67c0-.82-.04-1.53-.11-2.13-.07-.6-.21-1.11-.41-1.52s-.5-.71-.87-.92c-.38-.2-.87-.31-1.49-.31-.94,0-1.72,.29-2.34,.86-.62,.57-1.06,1.29-1.3,2.15v10.54h-2.45v-15.32h1.72l.46,1.87h.12c.55-.65,1.19-1.19,1.92-1.61,.72-.42,1.67-.63,2.83-.63,.98,0,1.78,.19,2.41,.57,.62,.38,1.11,1.04,1.46,1.98,.47-.8,1.12-1.42,1.95-1.87,.83-.45,1.76-.67,2.8-.67,.86,0,1.58,.1,2.18,.29,.59,.19,1.08,.54,1.47,1.03,.39,.49,.67,1.15,.84,1.99,.17,.84,.26,1.9,.26,3.19v9.19h-2.45v-9.23c0-.74-.04-1.37-.11-1.92-.07-.54-.21-.99-.43-1.35s-.51-.62-.89-.8c-.38-.17-.87-.26-1.49-.26-1.02,0-1.82,.29-2.39,.86-.57,.57-.98,1.39-1.23,2.45v10.24h-2.45Z"/>
            <path class="cls-1"
                  d="M572.78,87.61c0-2.59,.58-4.58,1.73-5.96,1.15-1.38,2.81-2.07,4.98-2.07,1.14,0,2.14,.19,2.99,.57,.85,.38,1.55,.92,2.1,1.62,.55,.71,.96,1.55,1.23,2.54,.26,.99,.4,2.09,.4,3.29,0,2.6-.58,4.58-1.73,5.96-1.15,1.38-2.81,2.07-4.98,2.07-1.14,0-2.14-.19-2.99-.57-.85-.38-1.55-.92-2.1-1.62-.55-.7-.96-1.55-1.23-2.54-.27-.99-.4-2.09-.4-3.29Zm2.54,0c0,.78,.08,1.52,.23,2.24,.15,.72,.39,1.34,.72,1.87,.33,.53,.76,.96,1.29,1.29,.53,.33,1.17,.49,1.93,.49,2.78,.02,4.17-1.94,4.17-5.88,0-.8-.08-1.55-.23-2.27-.15-.72-.39-1.34-.72-1.87-.33-.53-.76-.96-1.29-1.27-.53-.32-1.18-.48-1.93-.48-2.78-.02-4.17,1.94-4.17,5.88Z"/>
            <path class="cls-1"
                  d="M592.27,79.94v8.73c0,.8,.05,1.5,.14,2.1s.25,1.1,.48,1.5c.22,.4,.53,.7,.92,.9,.39,.2,.88,.31,1.47,.31,.55,0,1.04-.09,1.47-.26,.43-.17,.81-.41,1.15-.72s.63-.66,.89-1.06c.25-.4,.46-.82,.63-1.27v-10.24h2.45v10.97c0,.74,.03,1.5,.08,2.28,.05,.79,.14,1.48,.26,2.07h-1.69l-.61-2.42h-.15c-.47,.8-1.1,1.46-1.9,1.99-.8,.53-1.81,.8-3.03,.8-.82,0-1.54-.1-2.16-.29s-1.14-.54-1.56-1.03c-.42-.49-.74-1.15-.95-1.98-.21-.83-.32-1.87-.32-3.14v-9.26h2.45Z"/>
            <path class="cls-1"
                  d="M604.56,79.94h2.39v-3.03l2.45-.71v3.74h4.17v2.15h-4.17v8.49c0,1.06,.13,1.81,.4,2.25,.26,.44,.71,.66,1.35,.66,.53,0,.98-.06,1.35-.17,.37-.11,.78-.26,1.23-.44l.55,1.87c-.55,.27-1.16,.48-1.81,.64-.65,.16-1.36,.25-2.11,.25-1.25,0-2.13-.35-2.64-1.06-.51-.71-.77-1.88-.77-3.54v-8.95h-2.39v-2.15Z"/>
            <path class="cls-1"
                  d="M626.81,95.27v-8.73c0-.8-.05-1.5-.14-2.1-.09-.6-.26-1.1-.51-1.5-.25-.4-.58-.7-1-.9-.42-.2-.97-.31-1.64-.31-.96,0-1.83,.31-2.61,.94-.78,.62-1.28,1.42-1.5,2.41v10.21h-2.45v-21.45h2.45v7.85h.12c.53-.63,1.17-1.14,1.92-1.52,.75-.38,1.67-.57,2.77-.57,.86,0,1.6,.1,2.24,.29,.63,.19,1.16,.54,1.58,1.03,.42,.49,.72,1.15,.92,1.98s.29,1.88,.29,3.14v9.26h-2.45Z"/>
            <path class="cls-1"
                  d="M654.49,73.81h2.45v14.31c0,1.29-.17,2.4-.51,3.34-.34,.94-.82,1.71-1.44,2.31-.62,.6-1.37,1.05-2.25,1.33-.88,.29-1.85,.43-2.91,.43-2.53,0-4.44-.57-5.73-1.72-1.29-1.14-1.93-2.88-1.93-5.21v-14.8h2.54v13.61c0,1.08,.11,2,.32,2.74,.21,.75,.54,1.35,.96,1.81,.43,.46,.97,.79,1.61,1s1.39,.31,2.25,.31c1.65,0,2.84-.45,3.55-1.36,.71-.91,1.07-2.41,1.07-4.49v-13.61Z"/>
            <path class="cls-1"
                  d="M671.74,95.27v-8.73c0-1.59-.23-2.79-.69-3.6-.46-.81-1.3-1.21-2.53-1.21-1.08,0-1.98,.29-2.68,.87-.71,.58-1.2,1.31-1.49,2.19v10.48h-2.45v-15.32h1.72l.46,1.87h.12c.49-.65,1.15-1.19,1.98-1.61,.83-.42,1.81-.63,2.96-.63,.84,0,1.57,.1,2.21,.29,.63,.19,1.16,.54,1.58,1.03,.42,.49,.74,1.15,.95,1.98,.21,.83,.32,1.88,.32,3.14v9.26h-2.45Z"/>
            <path class="cls-1"
                  d="M678.67,75.29c0-.47,.16-.87,.47-1.21,.32-.34,.72-.51,1.21-.51s.91,.17,1.26,.51,.52,.74,.52,1.21-.17,.86-.52,1.16c-.35,.31-.77,.46-1.26,.46s-.89-.15-1.21-.46c-.32-.31-.47-.69-.47-1.16Zm.52,4.66h2.45v15.32h-2.45v-15.32Z"/>
            <path class="cls-1"
                  d="M691.29,88.92l.86,2.91h.03l.77-2.97,3.43-8.92h2.64l-6.53,15.66h-1.04l-6.65-15.66h2.82l3.68,8.98Z"/>
            <path class="cls-1"
                  d="M712.5,94.04c-.61,.49-1.38,.88-2.31,1.16-.93,.29-1.92,.43-2.96,.43-1.16,0-2.18-.19-3.03-.57-.86-.38-1.56-.92-2.12-1.62-.55-.7-.96-1.55-1.23-2.53-.27-.98-.4-2.08-.4-3.31,0-2.61,.58-4.61,1.75-5.98,1.16-1.37,2.83-2.05,5-2.05,.69,0,1.39,.08,2.08,.23s1.32,.44,1.87,.87c.55,.43,1,1.04,1.35,1.82s.52,1.82,.52,3.11c0,.67-.06,1.42-.18,2.24h-9.84c0,.9,.09,1.7,.28,2.39,.18,.69,.47,1.28,.86,1.76,.39,.48,.89,.85,1.52,1.1,.62,.26,1.38,.38,2.28,.38,.69,0,1.39-.12,2.08-.37s1.22-.53,1.56-.86l.92,1.78Zm-5.27-12.32c-1.21,0-2.17,.32-2.9,.95-.73,.63-1.16,1.72-1.3,3.25h7.6c0-1.55-.3-2.64-.89-3.26-.59-.62-1.43-.94-2.51-.94Z"/>
            <path class="cls-1"
                  d="M724.12,82.3c-.61-.2-1.2-.31-1.75-.31-.88,0-1.57,.24-2.08,.72-.51,.48-.83,1.09-.95,1.82v10.73h-2.45v-15.32h1.72l.46,1.87h.12c.39-.69,.85-1.23,1.39-1.61,.54-.38,1.23-.57,2.07-.57,.59,0,1.26,.1,1.99,.31l-.52,2.36Z"/>
            <path class="cls-1"
                  d="M734.05,91.1c0-.61-.18-1.09-.55-1.44-.37-.35-.82-.64-1.36-.87s-1.13-.46-1.78-.67-1.24-.49-1.78-.83c-.54-.34-1-.77-1.36-1.3-.37-.53-.55-1.25-.55-2.15,0-1.47,.42-2.55,1.26-3.23,.84-.68,2-1.03,3.49-1.03,1.1,0,2.03,.1,2.77,.29,.75,.19,1.39,.42,1.95,.69l-.58,2.02c-.47-.22-1.04-.42-1.7-.6-.66-.17-1.38-.26-2.13-.26-.9,0-1.56,.15-1.98,.46-.42,.31-.63,.84-.63,1.59,0,.53,.18,.95,.55,1.24,.37,.3,.82,.56,1.36,.8,.54,.23,1.13,.46,1.78,.69,.64,.23,1.24,.52,1.78,.89,.54,.37,1,.83,1.36,1.39,.37,.56,.55,1.3,.55,2.22,0,.65-.11,1.27-.32,1.84-.21,.57-.55,1.06-1,1.47-.45,.41-1.01,.73-1.67,.97-.67,.23-1.45,.35-2.34,.35-1.17,0-2.16-.11-2.97-.34-.82-.22-1.5-.49-2.05-.8l.74-2.08c.47,.27,1.08,.51,1.84,.74,.76,.23,1.52,.34,2.3,.34,.88,0,1.6-.17,2.18-.52s.86-.97,.86-1.87Z"/>
            <path class="cls-1"
                  d="M740.21,75.29c0-.47,.16-.87,.47-1.21,.32-.34,.72-.51,1.21-.51s.91,.17,1.26,.51,.52,.74,.52,1.21-.17,.86-.52,1.16c-.35,.31-.77,.46-1.26,.46s-.89-.15-1.21-.46c-.32-.31-.47-.69-.47-1.16Zm.52,4.66h2.45v15.32h-2.45v-15.32Z"/>
            <path class="cls-1"
                  d="M746.4,79.94h2.39v-3.03l2.45-.71v3.74h4.17v2.15h-4.17v8.49c0,1.06,.13,1.81,.4,2.25,.26,.44,.71,.66,1.35,.66,.53,0,.98-.06,1.35-.17,.37-.11,.78-.26,1.23-.44l.55,1.87c-.55,.27-1.16,.48-1.81,.64-.65,.16-1.36,.25-2.11,.25-1.25,0-2.13-.35-2.64-1.06-.51-.71-.77-1.88-.77-3.54v-8.95h-2.39v-2.15Z"/>
            <path class="cls-1"
                  d="M763.33,89.87l.86,2.94h.15l.68-2.97,2.98-9.9h2.45l-4.54,13.76c-.35,1-.69,1.97-1.03,2.91-.34,.94-.71,1.78-1.12,2.51-.41,.74-.87,1.32-1.38,1.76-.51,.44-1.1,.66-1.78,.66-.74,0-1.34-.1-1.81-.31l.43-2.11c.27,.1,.52,.15,.77,.15,.57,0,1.12-.3,1.66-.9,.53-.6,.97-1.64,1.32-3.11l-6.16-15.32h2.82l3.69,9.93Z"/>
        </g>
    </g>
</svg>
