<svg xmlns="http://www.w3.org/2000/svg" width="28" height="39.111" viewBox="0 0 28 39.111">
  <g transform="translate(-213.878 -105.5)">
    <g transform="translate(223.489 107)" fill="none" stroke="#e0006d" stroke-miterlimit="10" stroke-width="1.5">
      <circle cx="4.328" cy="4.328" r="4.328" stroke="none"/>
      <circle cx="4.328" cy="4.328" r="5.078" fill="none"/>
    </g>
    <g transform="translate(-670.622 -307.111)" fill="none" stroke-miterlimit="10">
      <path
          d="M911,429.389h0A1.389,1.389,0,0,0,909.611,428H887.389A1.388,1.388,0,0,0,886,429.389h0a1.388,1.388,0,0,0,1.389,1.389h6.944a1.388,1.388,0,0,1,1.389,1.389v3.4a2.78,2.78,0,0,1-.4,1.429l-6.856,11.426a1.191,1.191,0,0,0,1.022,1.8h0a1.191,1.191,0,0,0,1.021-.578l6.8-11.326a1.389,1.389,0,0,1,2.382,0l6.8,11.326a1.192,1.192,0,0,0,1.022.578h0a1.191,1.191,0,0,0,1.021-1.8l-6.855-11.426a2.779,2.779,0,0,1-.4-1.429v-3.4a1.389,1.389,0,0,1,1.389-1.389h6.945A1.388,1.388,0,0,0,911,429.389Z"
          stroke="none"/>
      <path
          d="M 887.388916015625 428.0000610351562 C 886.62158203125 428.0000610351562 886.0001220703125 428.62158203125 886.0001220703125 429.3888549804688 C 886.0001220703125 430.15625 886.62158203125 430.7777099609375 887.388916015625 430.7777099609375 L 894.3333740234375 430.7777099609375 C 895.100830078125 430.7777099609375 895.72216796875 431.3993530273438 895.72216796875 432.166748046875 L 895.72216796875 435.56396484375 C 895.72216796875 436.0674438476562 895.5853271484375 436.5611572265625 895.326416015625 436.9931640625 L 888.470703125 448.4188232421875 C 887.9949951171875 449.2125244140625 888.566650390625 450.2223510742188 889.4923095703125 450.2223510742188 C 889.910400390625 450.2223510742188 890.2987060546875 450.0028686523438 890.5137939453125 449.6438598632812 L 897.30908203125 438.318115234375 C 897.578857421875 437.8687744140625 898.0394897460938 437.6441040039062 898.5000610351562 437.6441040039062 C 898.960693359375 437.6441040039062 899.4212646484375 437.8687744140625 899.6910400390625 438.318115234375 L 906.486083984375 449.6438598632812 C 906.7015380859375 450.0028686523438 907.089599609375 450.2223510742188 907.5078125 450.2223510742188 C 908.43359375 450.2223510742188 909.0050048828125 449.2125244140625 908.5291748046875 448.4188232421875 L 901.6737060546875 436.9931640625 C 901.4146728515625 436.5611572265625 901.2777099609375 436.0674438476562 901.2777099609375 435.56396484375 L 901.2777099609375 432.166748046875 C 901.2777099609375 431.3993530273438 901.8995361328125 430.7777099609375 902.66650390625 430.7777099609375 L 909.6112060546875 430.7777099609375 C 910.3785400390625 430.7777099609375 911.0001220703125 430.15625 911.0001220703125 429.3888549804688 C 911.0001220703125 428.62158203125 910.3785400390625 428.0000610351562 909.6112060546875 428.0000610351562 L 901.2777099609375 428.0000610351562 L 895.72216796875 428.0000610351562 L 887.388916015625 428.0000610351562 M 887.388916015625 426.5000610351562 L 895.72216796875 426.5000610351562 L 901.2777099609375 426.5000610351562 L 909.6112060546875 426.5000610351562 C 911.2041625976562 426.5000610351562 912.5001220703125 427.7959594726562 912.5001220703125 429.3888549804688 C 912.5001220703125 430.9817810058594 911.2041625976562 432.2777099609375 909.6112060546875 432.2777099609375 L 902.7777099609375 432.2777099609375 L 902.7777099609375 435.56396484375 C 902.7777099609375 435.7952575683594 902.8408203125 436.0227355957031 902.9601440429688 436.2218017578125 L 909.8154296875 447.6470642089844 C 910.3131713867188 448.4773864746094 910.3259887695312 449.515869140625 909.84912109375 450.3577270507812 C 909.3723754882812 451.199462890625 908.4752197265625 451.7223510742188 907.5078125 451.7223510742188 C 906.5679321289062 451.7223510742188 905.68359375 451.2216796875 905.199951171875 450.4157409667969 L 898.5000610351562 439.2486267089844 L 891.800048828125 450.4155883789062 C 891.3173217773438 451.2213134765625 890.432861328125 451.7223510742188 889.4923095703125 451.7223510742188 C 888.5249633789062 451.7223510742188 887.6278076171875 451.199462890625 887.1509399414062 450.3577270507812 C 886.674072265625 449.5158996582031 886.686767578125 448.4774780273438 887.18408203125 447.6476745605469 L 894.0402221679688 436.2214050292969 C 894.1591186523438 436.0229797363281 894.22216796875 435.79541015625 894.22216796875 435.56396484375 L 894.22216796875 432.2777099609375 L 887.388916015625 432.2777099609375 C 885.7960205078125 432.2777099609375 884.5001220703125 430.9817810058594 884.5001220703125 429.3888549804688 C 884.5001220703125 427.7959594726562 885.7960205078125 426.5000610351562 887.388916015625 426.5000610351562 Z"
          stroke="none" fill="#e0006d"/>
    </g>
  </g>
</svg>
