<svg xmlns="http://www.w3.org/2000/svg" width="26.5" height="34.833" viewBox="0 0 26.5 34.833"><g transform="translate(-977.25 -411.25)"><path d="M1010.944,418.944h-4.861a2.083,2.083,0,0,1-2.083-2.083V412" transform="translate(-7.945 0)" fill="none" stroke="#e0006d" stroke-miterlimit="10" stroke-width="1.5"/><path d="M1003,419.808V443.25a2.083,2.083,0,0,1-2.083,2.083H980.083A2.083,2.083,0,0,1,978,443.25V414.083A2.083,2.083,0,0,1,980.083,412h15.109a2.083,2.083,0,0,1,1.474.61l5.724,5.724A2.084,2.084,0,0,1,1003,419.808Z" transform="translate(0 0)" fill="none" stroke="#e0006d" stroke-miterlimit="10" stroke-width="1.5"/><line x2="8.333" transform="translate(982.167 437)" fill="none" stroke="#e0006d" stroke-linecap="round" stroke-miterlimit="10" stroke-width="1.5"/><line x2="16.667" transform="translate(982.167 431.444)" fill="none" stroke="#e0006d" stroke-linecap="round" stroke-miterlimit="10" stroke-width="1.5"/><line x2="16.667" transform="translate(982.167 425.889)" fill="none" stroke="#e0006d" stroke-linecap="round" stroke-miterlimit="10" stroke-width="1.5"/></g></svg>
