<svg xmlns="http://www.w3.org/2000/svg" viewBox="0 0 32.11 23.65"><defs><style>.cls-1{fill:#e0006d;}</style></defs><g id="Layer_2" data-name="Layer 2"><g id="Layer_1-2" data-name="Layer 1"><g id="Group_720" data-name="Group 720"><g id="Rectangle_391" data-name="Rectangle 391"><path class="cls-1" d="M27.58,20.57h-23a2.75,2.75,0,0,1-2.75-2.75V2.75A2.75,2.75,0,0,1,4.53,0h23a2.75,2.75,0,0,1,2.75,2.75V17.82A2.75,2.75,0,0,1,27.58,20.57ZM4.53,1.5A1.25,1.25,0,0,0,3.28,2.75V17.82a1.25,1.25,0,0,0,1.25,1.25h23a1.26,1.26,0,0,0,1.25-1.25V2.75A1.26,1.26,0,0,0,27.58,1.5Z"/></g><g id="Rectangle_392" data-name="Rectangle 392"><path class="cls-1" d="M28.86,23.65H3.24A3.25,3.25,0,0,1,0,20.41V19.07H32.11v1.34A3.25,3.25,0,0,1,28.86,23.65ZM1.51,20.57a1.74,1.74,0,0,0,1.73,1.58H28.86a1.74,1.74,0,0,0,1.74-1.58Z"/></g><g id="Rectangle_393" data-name="Rectangle 393"><path class="cls-1" d="M27.57,17.91h-23V2.66h23ZM6,16.41h20V4.16H6Z"/></g></g></g></g></svg>