<svg xmlns="http://www.w3.org/2000/svg" width="38.6" height="30" viewBox="0 0 38.6 30">
  <defs>
    <style>
      .cls-1 {
        fill: #000;
      }
    </style>
  </defs>
  <path id="home-alt" class="cls-1" d="M38.241,46.446,21.731,32.891a3.759,3.759,0,0,0-4.808,0L.413,46.446a1.071,1.071,0,0,0-.134,1.509l.686.824a1.073,1.073,0,0,0,1.51.134L4.316,47.4V59.879A2.15,2.15,0,0,0,6.46,62.022h8.578a2.15,2.15,0,0,0,2.144-2.143V52.914h4.289v6.965a2.15,2.15,0,0,0,2.144,2.143h8.578A2.148,2.148,0,0,0,34.338,59.9V47.4l1.845,1.515a1.073,1.073,0,0,0,1.51-.134l.686-.823a1.071,1.071,0,0,0-.137-1.513Zm-7.13,12.362H24.688V51.843A2.15,2.15,0,0,0,22.543,49.7H16.11a2.15,2.15,0,0,0-2.144,2.143v6.965H7.532V44.763l11.795-9.685,11.795,9.681Z" transform="translate(-0.028 -32.022)"/>
</svg>
