<svg xmlns="http://www.w3.org/2000/svg" viewBox="0 0 38 32.26">
  <defs>
    <style>.cls-1 {
      fill: #fff;
    }</style>
  </defs>
  <title>Asset 7</title>
  <g id="Layer_2" data-name="Layer 2">
    <g id="Layer_1-2" data-name="Layer 1">
      <path class="cls-1"
            d="M37.42,4C36.54,2.77,33.84,0,28,0c-5.07,0-7.75,1.86-9,3.15C17.75,1.86,15.07,0,10,0,4.16,0,1.46,2.77.58,4A2.93,2.93,0,0,0,0,5.73V29.51a1.84,1.84,0,0,0,1,1.61A1.93,1.93,0,0,0,3,31,13.08,13.08,0,0,1,10,28.89,13.24,13.24,0,0,1,18.31,32h0a1,1,0,0,0,.26.18h0a1,1,0,0,0,.38.08h.05a.78.78,0,0,0,.33-.07h0a1,1,0,0,0,.27-.18,0,0,0,0,0,0,0A13.32,13.32,0,0,1,28,28.89a13.08,13.08,0,0,1,7,2.15,1.93,1.93,0,0,0,2,.08,1.84,1.84,0,0,0,1-1.61V5.73A2.93,2.93,0,0,0,37.42,4ZM15.83,22.87a1,1,0,0,1-1.38.29A8.87,8.87,0,0,0,10,22a6.74,6.74,0,0,0-4.34,1.52A1,1,0,0,1,5,23.8a1,1,0,0,1-.74-.32,1,1,0,0,1,.06-1.42A8.84,8.84,0,0,1,10,20a10.67,10.67,0,0,1,5.51,1.47A1,1,0,0,1,15.83,22.87Zm0-6a1,1,0,0,1-1.38.29A8.87,8.87,0,0,0,10,16a6.74,6.74,0,0,0-4.34,1.52,1,1,0,0,1-.68.27,1,1,0,0,1-.74-.32A1,1,0,0,1,4.33,16,8.84,8.84,0,0,1,10,14a10.67,10.67,0,0,1,5.51,1.47A1,1,0,0,1,15.83,16.85Zm0-6a1,1,0,0,1-1.38.29A8.88,8.88,0,0,0,10,10a7,7,0,0,0-4.35,1.51,1,1,0,0,1-.67.26,1,1,0,0,1-.74-.32A1,1,0,0,1,4.33,10,8.86,8.86,0,0,1,10,8a10.6,10.6,0,0,1,5.51,1.47A1,1,0,0,1,15.83,10.83Zm17.9,12.65a1,1,0,0,1-.74.32,1,1,0,0,1-.68-.27A6.9,6.9,0,0,0,28,22a8.86,8.86,0,0,0-4.42,1.15,1,1,0,0,1-1.09-1.68A10.67,10.67,0,0,1,28,20a8.84,8.84,0,0,1,5.7,2A1,1,0,0,1,33.73,23.48Zm0-6a1,1,0,0,1-.74.32,1,1,0,0,1-.68-.27A6.9,6.9,0,0,0,28,16a8.86,8.86,0,0,0-4.42,1.15,1,1,0,0,1-1.09-1.68A10.67,10.67,0,0,1,28,14a8.84,8.84,0,0,1,5.7,2A1,1,0,0,1,33.73,17.46Zm0-6a1,1,0,0,1-.74.32,1,1,0,0,1-.68-.27A6.93,6.93,0,0,0,28,10a8.91,8.91,0,0,0-4.42,1.14,1,1,0,0,1-1.09-1.67A10.6,10.6,0,0,1,28,8a8.86,8.86,0,0,1,5.7,2A1,1,0,0,1,33.73,11.44Z"/>
    </g>
  </g>
</svg>
