<svg xmlns="http://www.w3.org/2000/svg" width="31.514" height="31.515" viewBox="0 0 31.514 31.515">
  <g transform="translate(-1065.348 -413.493)">
    <path
        d="M1096.056,429.782a14.433,14.433,0,0,1-13.918,13.131,14.253,14.253,0,0,1-4.381-.568,3.737,3.737,0,0,0-1.865-.032l-8.538,1.912A1.025,1.025,0,0,1,1066.13,443l1.911-8.538a3.732,3.732,0,0,0-.032-1.865,14.278,14.278,0,0,1-.569-4.38,14.335,14.335,0,1,1,28.615,1.564Z"
        transform="translate(0 0)" fill="none" stroke="#e0006d" stroke-miterlimit="10" stroke-width="1.5"/>
    <g transform="translate(-0.213 -1.072)">
      <path
          d="M1081.753,432.911a.736.736,0,0,1-.73-.678l-.17-1.46a.7.7,0,0,1,.662-.849c1.594-.153,2.477-.763,2.477-1.832v-.034c0-.951-.73-1.612-1.951-1.612a3.311,3.311,0,0,0-2.309.932,1.012,1.012,0,0,1-.627.238.944.944,0,0,1-.951-.932.955.955,0,0,1,.34-.73,5,5,0,0,1,3.6-1.409c2.375,0,3.987,1.324,3.987,3.445v.034c0,2.138-1.545,3.106-3.428,3.428l-.068.781a.763.763,0,0,1-.729.678Zm0,1.239a1.159,1.159,0,0,1,1.2,1.17v.17a1.205,1.205,0,0,1-2.409,0v-.17A1.159,1.159,0,0,1,1081.753,434.151Z"
          transform="translate(0 0)" fill="#e0006d"/>
    </g>
  </g>
</svg>
