<svg xmlns="http://www.w3.org/2000/svg" viewBox="0 0 34.01 34.7">
  <defs>
    <style>.cls-1 {
      fill: #fff;
    }</style>
  </defs>
  <title>Asset 3</title>
  <g id="Layer_2" data-name="Layer 2">
    <g id="Layer_1-2" data-name="Layer 1">
      <path class="cls-1"
            d="M33.44,15.41,27.85,9.32V2A2,2,0,0,0,25.79,0H24a2,2,0,0,0-2.06,2V3.73l-2.7-2.51a3.27,3.27,0,0,0-4.41,0L.62,15.35a1.86,1.86,0,0,0-.49,2.08A2,2,0,0,0,2.06,18.7H3.64V31.8a3,3,0,0,0,3.11,2.9H11.5a3,3,0,0,0,3.11-2.9V22.7h4.78v9.1a3,3,0,0,0,3.11,2.9h4.75a3,3,0,0,0,3.11-2.9V18.7h1.58a2,2,0,0,0,1.93-1.27A1.83,1.83,0,0,0,33.44,15.41Z"/>
    </g>
  </g>
</svg>
