<svg xmlns="http://www.w3.org/2000/svg" viewBox="0 0 38 32.27"><defs><style>.cls-1{fill:#000;}</style></defs><title>Asset 6</title><g id="Layer_2" data-name="Layer 2"><g id="Layer_1-2" data-name="Layer 1"><path class="cls-1" d="M15.54,9.45A10.71,10.71,0,0,0,10,8a8.78,8.78,0,0,0-5.7,2,1,1,0,0,0-.06,1.41,1,1,0,0,0,.74.32,1,1,0,0,0,.68-.27A6.83,6.83,0,0,1,10,10a8.9,8.9,0,0,1,4.42,1.14,1,1,0,1,0,1.09-1.67Z"/><path class="cls-1" d="M15.54,15.47A10.71,10.71,0,0,0,10,14a8.78,8.78,0,0,0-5.7,2.05,1,1,0,0,0-.06,1.41,1,1,0,0,0,.74.32,1,1,0,0,0,.68-.27A6.83,6.83,0,0,1,10,16a8.88,8.88,0,0,1,4.42,1.14,1,1,0,0,0,1.09-1.67Z"/><path class="cls-1" d="M15.54,21.49A10.67,10.67,0,0,0,10,20a8.78,8.78,0,0,0-5.7,2.05,1,1,0,0,0-.06,1.41A1,1,0,0,0,5,23.8a1,1,0,0,0,.68-.27A6.83,6.83,0,0,1,10,22a8.93,8.93,0,0,1,4.42,1.14,1,1,0,1,0,1.09-1.67Z"/><path class="cls-1" d="M37.42,4C36.54,2.77,33.84,0,28,0c-5.07,0-7.75,1.86-9,3.15C17.75,1.86,15.07,0,10,0,4.16,0,1.46,2.77.58,4A2.94,2.94,0,0,0,0,5.74V29.51a1.84,1.84,0,0,0,1,1.61A1.93,1.93,0,0,0,3,31,13.08,13.08,0,0,1,10,28.89,13.24,13.24,0,0,1,18.31,32l0,0a.78.78,0,0,0,.26.17h0a.85.85,0,0,0,.38.09l.05,0a1,1,0,0,0,.33-.06h0a1,1,0,0,0,.27-.17s0,0,0,0A13.32,13.32,0,0,1,28,28.89a13.08,13.08,0,0,1,7,2.15,1.93,1.93,0,0,0,2,.08,1.84,1.84,0,0,0,1-1.61V5.74A2.94,2.94,0,0,0,37.42,4ZM2,29.31V5.74a1,1,0,0,1,.18-.58C2.89,4.21,5.07,2,10,2c4.65,0,6.85,1.72,7.75,2.75a1,1,0,0,1,.25.66V29.27a15.08,15.08,0,0,0-8-2.38A14.69,14.69,0,0,0,2,29.31Zm34,0a14.61,14.61,0,0,0-16,0V5.41a1,1,0,0,1,.25-.67C21.15,3.72,23.35,2,28,2c4.93,0,7.11,2.21,7.82,3.16a1,1,0,0,1,.18.58Z"/><path class="cls-1" d="M28,8a10.71,10.71,0,0,0-5.51,1.47,1,1,0,1,0,1.09,1.67A8.91,8.91,0,0,1,28,10a6.93,6.93,0,0,1,4.34,1.51,1,1,0,0,0,.68.27,1,1,0,0,0,.74-.32A1,1,0,0,0,33.67,10,8.78,8.78,0,0,0,28,8Z"/><path class="cls-1" d="M28,14a10.71,10.71,0,0,0-5.51,1.47,1,1,0,1,0,1.09,1.67A8.91,8.91,0,0,1,28,16a6.93,6.93,0,0,1,4.34,1.51,1,1,0,0,0,.68.27,1,1,0,0,0,.74-.32,1,1,0,0,0-.06-1.41A8.78,8.78,0,0,0,28,14Z"/><path class="cls-1" d="M28,20a10.67,10.67,0,0,0-5.51,1.47,1,1,0,1,0,1.09,1.67A8.91,8.91,0,0,1,28,22a6.93,6.93,0,0,1,4.34,1.51,1,1,0,0,0,.68.27,1,1,0,0,0,.74-.32,1,1,0,0,0-.06-1.41A8.78,8.78,0,0,0,28,20Z"/></g></g></svg>
