<svg xmlns="http://www.w3.org/2000/svg" viewBox="0 0 25.98 25.98"><g id="Layer_2" data-name="Layer 2"><g id="Layer_1-2" data-name="Layer 1"><g id="Group_715" data-name="Group 715"><g id="Path_449" data-name="Path 449"><path d="M1,26a1,1,0,0,1-.71-.29,1,1,0,0,1-.25-1l1.57-5.46A13,13,0,0,1,13,0h0A13,13,0,1,1,6.74,24.38L1.28,25.94A1,1,0,0,1,1,26ZM6.87,22.3a1,1,0,0,1,.51.14A11,11,0,1,0,13,2h0A11,11,0,0,0,3.54,18.6a1,1,0,0,1,.1.78L2.46,23.52l4.13-1.18A.9.9,0,0,1,6.87,22.3Z"/></g><g id="Group_714" data-name="Group 714"><g id="Path_450" data-name="Path 450"><path d="M13.08,21.18a1,1,0,0,1-1-1V11.86H10.69a1,1,0,1,1,0-2h2.39a1,1,0,0,1,1,1v9.32A1,1,0,0,1,13.08,21.18Z"/></g><g id="Ellipse_106" data-name="Ellipse 106"><circle cx="13.06" cy="7.15" r="1.36"/></g></g></g></g></g></svg>