<svg xmlns="http://www.w3.org/2000/svg" viewBox="0 0 25.97 25.98"><defs><style>.cls-1{fill:#fff;}</style></defs><g id="Layer_2" data-name="Layer 2"><g id="Layer_1-2" data-name="Layer 1"><g id="Group_718" data-name="Group 718"><g id="Path_449-4" data-name="Path 449-4"><path class="cls-1" d="M19.62,1.82A13,13,0,0,0,13,0h0A13,13,0,0,0,1.6,19.24L0,24.7A1,1,0,0,0,1,26a.84.84,0,0,0,.27,0l5.47-1.56A13,13,0,0,0,19.62,1.82Zm-8.94,10a1,1,0,0,1,0-2h2.39a1,1,0,0,1,1,1v9.32a1,1,0,0,1-2,0V11.86ZM13.05,5.8A1.36,1.36,0,1,1,11.7,7.15,1.35,1.35,0,0,1,13.05,5.8Z"/></g></g></g></g></svg>